<svg width="66" height="56" viewBox="0 0 66 56" fill="none" xmlns="http://www.w3.org/2000/svg">
<g clip-path="url(#clip0_53_6)">
<path d="M37.467 16.87L36.2271 15.87C36.0333 15.7043 35.7854 15.626 35.5373 15.6522C35.2892 15.6784 35.0609 15.807 34.902 16.01L17.7419 36.83L18.007 37.14L22.2568 33C22.1151 32.9398 21.9979 32.8291 21.9256 32.6871C21.8532 32.5451 21.8302 32.3807 21.8605 32.2227C21.8909 32.0646 21.9727 31.9227 22.0918 31.8218C22.2109 31.7208 22.3597 31.6671 22.5123 31.67C22.65 31.67 22.784 31.7166 22.8947 31.803C23.0055 31.8894 23.0871 32.011 23.1275 32.15L28.7308 26.66C28.8166 26.587 28.9235 26.5472 29.0337 26.5472C29.1439 26.5472 29.2508 26.587 29.3366 26.66L29.6205 26.88C29.7166 26.9528 29.835 26.9849 29.9523 26.9701C30.0697 26.9553 30.1775 26.8946 30.2547 26.8L37.5806 18.12C37.6585 18.0339 37.7179 17.931 37.7548 17.8184C37.7917 17.7058 37.8052 17.5862 37.7944 17.4676C37.7836 17.349 37.7488 17.2343 37.6923 17.1312C37.6358 17.028 37.559 16.939 37.467 16.87Z" fill="#303030"/>
<path d="M45.5313 22.73C41.776 25.553 37.5691 27.6364 33.1131 28.88C28.6906 30.0683 24.1651 30.7786 19.6066 31C19.6984 31.7102 19.8634 32.4077 20.0987 33.08C22.6732 35.54 42.0576 31.34 45.8436 26.48C46.6481 25.47 45.5313 22.73 45.5313 22.73ZM22.5123 33C22.385 33 22.2606 32.9601 22.1548 32.8854C22.0489 32.8107 21.9664 32.7045 21.9177 32.5802C21.869 32.456 21.8562 32.3192 21.8811 32.1873C21.9059 32.0554 21.9672 31.9342 22.0572 31.8391C22.1472 31.744 22.2619 31.6793 22.3868 31.653C22.5116 31.6268 22.641 31.6403 22.7586 31.6917C22.8762 31.7432 22.9768 31.8304 23.0475 31.9422C23.1182 32.054 23.1559 32.1855 23.1559 32.32C23.1572 32.4097 23.1414 32.4987 23.1096 32.5818C23.0777 32.6649 23.0303 32.7404 22.9703 32.8038C22.9103 32.8672 22.8388 32.9173 22.7601 32.951C22.6815 32.9847 22.5972 33.0013 22.5123 33Z" fill="#303030"/>
<path d="M4.19832 21.2899L4.34976 20.5999L6.81067 21.1899C7.01369 21.5861 7.13923 22.0214 7.1798 22.4699C7.22678 22.945 7.19798 23.425 7.09462 23.8899C6.97209 24.5352 6.69141 25.1352 6.28063 25.6299C5.8898 26.097 5.38587 26.4428 4.82301 26.6299C4.24289 26.8189 3.62588 26.8431 3.03412 26.6999C2.44106 26.5646 1.89441 26.2603 1.45347 25.8199C1.01928 25.3969 0.707494 24.8526 0.554288 24.2499C0.384329 23.5954 0.384329 22.9045 0.554288 22.2499C0.656016 21.76 0.838643 21.2929 1.09379 20.8699C1.33528 20.4853 1.65965 20.1665 2.0403 19.9399L2.38104 20.4899C2.05478 20.7016 1.77473 20.9839 1.55936 21.3183C1.344 21.6527 1.19822 22.0316 1.13165 22.4299C1.01428 22.9473 1.02405 23.4877 1.16005 23.9999C1.28723 24.4863 1.5395 24.9259 1.88886 25.2699C2.24794 25.6367 2.6972 25.8896 3.18556 25.9999C3.65912 26.1404 4.16015 26.1404 4.63371 25.9999C5.08736 25.8417 5.49481 25.5628 5.81684 25.1899C6.14778 24.7873 6.37584 24.3019 6.47939 23.7799C6.63512 23.1468 6.59533 22.4776 6.36581 21.8699L4.19832 21.2899Z" fill="#303030"/>
<path d="M9.55469 14.9999L7.34934 18.1099L8.29585 19.8999L7.86046 20.5199L4.3584 13.7699L4.76539 13.1799L11.8926 14.7999L11.4477 15.4199L9.55469 14.9999ZM8.93 14.8399L5.14399 13.9399L7.037 17.5299L8.93 14.8399Z" fill="#303030"/>
<path d="M8.92999 8.5501L9.49789 8.1001L13.1041 13.2001L16.0761 10.8501L16.4358 11.3601L12.9053 14.1501L8.92999 8.5501Z" fill="#303030"/>
<path d="M14.893 4.38008L15.5272 4.08008L18.0259 9.86008L21.4049 8.24008L21.651 8.82008L17.6379 10.7501L14.893 4.38008Z" fill="#303030"/>
<path d="M27.3679 6.68003L27.5098 7.31003L22.9477 8.44003L21.4333 1.62003L25.8629 0.530029L25.9954 1.15003L22.2094 2.08003L22.7489 4.50003L26.0806 3.67003L26.2226 4.29003L22.8814 5.11003L23.4493 7.64003L27.3679 6.68003Z" fill="#303030"/>
<path d="M33.8703 6.92997L32.2897 4.72997C32.1131 4.74029 31.9362 4.74029 31.7596 4.72997L29.9802 4.78997L30.0465 7.00997H29.3461L29.1284 0.00996866L31.6461 -3.1339e-05C32.3579 -0.0694894 33.0697 0.132721 33.6526 0.569969C33.8983 0.778962 34.0958 1.04418 34.2302 1.3456C34.3647 1.64702 34.4326 1.97678 34.4288 2.30997C34.4564 2.80416 34.3337 3.29473 34.0786 3.70997C33.8066 4.10853 33.4223 4.40603 32.9806 4.55997L34.637 6.89997L33.8703 6.92997ZM33.2078 3.63997C33.3779 3.47531 33.5099 3.27154 33.5936 3.04439C33.6773 2.81725 33.7105 2.57281 33.6905 2.32997C33.6954 2.08584 33.6476 1.84374 33.5509 1.62198C33.4541 1.40022 33.3109 1.20461 33.1321 1.04997C32.6958 0.737448 32.1712 0.592707 31.6461 0.639969L29.8477 0.709969L29.9613 4.20997L31.7218 4.14997C32.2586 4.17096 32.7851 3.99026 33.2078 3.63997Z" fill="#303030"/>
<path d="M38.8773 5.07L38.5366 7.46L37.8456 7.35L38.1958 5L36.2366 0L36.9748 0.12L38.6502 4.38L41.4897 0.85L42.1522 1L38.8773 5.07Z" fill="#303030"/>
<path d="M48.2383 4.64993L49.0617 5.77993L48.7021 6.07993L47.8786 4.91993L47.358 6.22993L46.9605 6.04993L47.4905 4.73993L46.1276 4.92993V4.44993L47.4716 4.28993L46.6387 3.15993L47.0078 2.85993L47.7366 3.99993L48.2477 2.67993L48.6547 2.85993L48.172 4.19993L49.535 3.99993V4.48993L48.2383 4.64993Z" fill="#303030"/>
<path d="M51.3996 12.7099C51.176 12.3458 51.0366 11.9314 50.9926 11.4999L51.551 11.2399C51.5929 11.6363 51.7156 12.0184 51.9107 12.3599C52.1221 12.7428 52.398 13.0817 52.7247 13.3599C53.062 13.7012 53.4925 13.9216 53.9551 13.9899C54.1222 14.0063 54.2906 13.9793 54.4457 13.9114C54.6007 13.8434 54.7377 13.7365 54.8448 13.5999C54.9233 13.5084 54.9832 13.4008 55.0206 13.2838C55.0581 13.1669 55.0723 13.043 55.0625 12.9199C55.0312 12.6762 54.954 12.4416 54.8354 12.2299C54.6575 11.923 54.4648 11.6259 54.258 11.3399C54.006 10.9911 53.7782 10.6235 53.5765 10.2399C53.4223 9.95284 53.3378 9.6299 53.3304 9.29992C53.3298 8.92934 53.4616 8.57218 53.6996 8.29992C53.9058 8.03604 54.178 7.83857 54.4851 7.72992C54.8283 7.62518 55.1926 7.62518 55.5358 7.72992C55.9779 7.88269 56.3867 8.12751 56.7378 8.44992C57.0292 8.70599 57.287 9.00192 57.5045 9.32992C57.7056 9.63408 57.856 9.97227 57.9493 10.3299L57.4098 10.6299C57.3157 10.2966 57.1754 9.97979 56.9934 9.68992C56.8121 9.43106 56.5988 9.199 56.3592 8.99992C56.0269 8.66016 55.5977 8.44575 55.1382 8.38992C54.9694 8.375 54.7997 8.40466 54.6444 8.47623C54.4891 8.5478 54.353 8.65903 54.2485 8.79992C54.168 8.89 54.1069 8.99741 54.0693 9.11477C54.0317 9.23214 54.0186 9.35669 54.0308 9.47992C54.053 9.73209 54.1308 9.97526 54.258 10.1899C54.3905 10.4199 54.5798 10.7199 54.8354 11.0799C55.0887 11.4207 55.3165 11.7818 55.5168 12.1599C55.6743 12.4461 55.7622 12.7691 55.7724 13.0999C55.773 13.4705 55.6412 13.8277 55.4033 14.0999C55.1962 14.3674 54.92 14.5655 54.6082 14.6699C54.2656 14.7792 53.9001 14.7792 53.5576 14.6699C53.1124 14.5176 52.7004 14.2728 52.3461 13.9499C51.964 13.5986 51.6436 13.1788 51.3996 12.7099Z" fill="#303030"/>
<path d="M60.9214 14.17L59.5868 12.17L60.079 11.8L63.1551 16.44L62.6629 16.81L61.3284 14.81L56.3876 18.46L55.9901 17.85L60.9214 14.17Z" fill="#303030"/>
<path d="M58.8012 22.39C58.9702 21.7856 59.2985 21.2445 59.7477 20.83C60.1872 20.4141 60.7226 20.1279 61.3 20C61.8886 19.8572 62.5025 19.8814 63.0794 20.07C63.6363 20.2645 64.1355 20.6092 64.5276 21.07C64.9353 21.5656 65.2127 22.1656 65.3321 22.81C65.4889 23.4426 65.4889 24.1073 65.3321 24.74C65.1585 25.3421 64.831 25.8819 64.3856 26.3C63.934 26.727 63.3854 27.0233 62.7933 27.16C62.2012 27.2967 61.5856 27.2691 61.0066 27.08C60.4455 26.8949 59.9441 26.5487 59.5584 26.08C59.1525 25.587 58.8752 24.9907 58.7539 24.35C58.6093 23.7033 58.6256 23.028 58.8012 22.39ZM60.0411 25.57C60.3572 25.9502 60.7667 26.2306 61.2243 26.38C61.6959 26.5245 62.1944 26.5417 62.674 26.4298C63.1535 26.318 63.5989 26.0808 63.9691 25.74C64.3185 25.4004 64.5765 24.9691 64.7169 24.49C64.8488 23.9841 64.8618 23.4517 64.7546 22.9393C64.6473 22.4269 64.4232 21.95 64.1016 21.55C63.7717 21.1679 63.3497 20.8879 62.8807 20.74C62.4031 20.606 61.9006 20.606 61.423 20.74C60.9411 20.8377 60.495 21.0768 60.1358 21.43C59.7832 21.7708 59.5248 22.2062 59.3881 22.69C59.2596 23.1977 59.2596 23.7322 59.3881 24.24C59.4917 24.7361 59.7169 25.1947 60.0411 25.57Z" fill="#303030"/>
<path d="M58.0819 33.9999L60.5333 32.9999C60.5333 32.8199 60.5901 32.6399 60.6374 32.4499L61.1012 30.6399L59.0946 30.0899L59.2745 29.3799L65.6728 31.1899L65.0292 33.7199C64.8842 34.4581 64.4949 35.1176 63.9313 35.5799C63.6722 35.7699 63.3751 35.8941 63.0632 35.9427C62.7512 35.9912 62.4328 35.9629 62.1329 35.8599C61.6762 35.7552 61.2668 35.4891 60.9726 35.1055C60.6783 34.7218 60.5167 34.2437 60.5144 33.7499L57.902 34.7499L58.0819 33.9999ZM61.2527 34.2799C61.3635 34.4924 61.5139 34.679 61.6948 34.8286C61.8757 34.9781 62.0834 35.0875 62.3053 35.1501C62.5272 35.2126 62.7588 35.2272 62.9862 35.1928C63.2136 35.1584 63.432 35.0758 63.6284 34.9499C64.0461 34.5954 64.3312 34.0957 64.4329 33.5399L64.8872 31.7399L61.6786 30.8299L61.2243 32.6299C61.0496 33.1663 61.0597 33.7506 61.2527 34.2799Z" fill="#303030"/>
<path d="M54.6839 40.4401L54.2012 40.0501L57.0407 36.1001L62.3222 40.3301L59.5774 44.1601L59.0946 43.7701L61.4136 40.5401L59.5206 39.0301L57.4477 41.9201L56.9745 41.5401L59.0946 38.6501L57.1354 37.0801L54.6839 40.4401Z" fill="#303030"/>
<path d="M52.4691 48.4099L51.1156 48.4899V48.0099L52.4691 47.9999L51.7403 46.8099L52.1094 46.5599L52.8288 47.7599L53.4156 46.4199L53.8226 46.6499L53.179 47.9099L54.5325 47.8299V48.3199H53.16L53.8889 49.5099L53.5197 49.7599L52.8004 48.5599L52.1757 49.8599L51.7782 49.6199L52.4691 48.4099Z" fill="#303030"/>
<path d="M40.1646 47.6099L41.3099 48.2799C41.5019 47.8902 41.7699 47.5479 42.0961 47.2756C42.4224 47.0033 42.7996 46.8071 43.2029 46.6999C43.5791 46.576 43.9747 46.5318 44.3671 46.5699C44.7075 46.5975 45.0346 46.7219 45.3136 46.9299C45.5658 47.1308 45.7513 47.4108 45.8436 47.7299C45.9577 48.1247 45.9376 48.5491 45.7868 48.9299C45.5493 49.4473 45.2291 49.9175 44.8403 50.3199C45.1524 50.4971 45.4418 50.7155 45.7016 50.9699C45.8801 51.1648 46.013 51.4011 46.0897 51.6599C46.1382 51.8617 46.1412 52.0726 46.0985 52.2759C46.0557 52.4791 45.9684 52.6688 45.8436 52.8299C45.5909 53.2146 45.2139 53.4884 44.7835 53.5999C44.4056 53.7522 43.9878 53.7522 43.6099 53.5999C43.4418 53.5235 43.2928 53.407 43.1746 53.2595C43.0563 53.1121 42.972 52.9376 42.9284 52.7499C42.8292 52.4198 42.8529 52.0622 42.9947 51.7499C43.2119 51.2953 43.4963 50.8801 43.837 50.5199L41.556 49.1799C41.4689 49.6508 41.4498 50.1329 41.4992 50.6099H40.9218C40.8829 50.0225 40.9471 49.4326 41.1111 48.8699L39.9185 48.1699L40.1646 47.6099ZM41.8115 48.6099L44.3198 50.0799C44.6485 49.7483 44.9206 49.3592 45.1243 48.9299C45.2283 48.64 45.2283 48.3199 45.1243 48.0299C45.0814 47.8567 44.9983 47.6974 44.8827 47.5665C44.767 47.4356 44.6224 47.3371 44.4617 47.2799C44.0688 47.1397 43.6431 47.1397 43.2502 47.2799C42.9291 47.3694 42.6305 47.5322 42.3754 47.7568C42.1203 47.9814 41.9149 48.2624 41.7737 48.5799L41.8115 48.6099ZM45.3704 52.6099C45.4322 52.4994 45.471 52.3762 45.484 52.2486C45.4971 52.1209 45.4842 51.9918 45.4461 51.8699C45.3881 51.6724 45.2839 51.4936 45.1432 51.3499C44.9023 51.1352 44.6387 50.9506 44.3576 50.7999C44.0706 51.0997 43.8195 51.4356 43.6099 51.7999C43.4955 52.0271 43.4683 52.2921 43.5342 52.5399C43.5642 52.6543 43.6168 52.7607 43.6886 52.8521C43.7604 52.9434 43.8497 53.0177 43.9506 53.0699C44.1916 53.1659 44.4574 53.1659 44.6984 53.0699C44.9557 52.9974 45.1804 52.8309 45.3325 52.5999L45.3704 52.6099Z" fill="#303030"/>
<path d="M28.6267 55.3201L28.7592 48.3201H29.4312L29.3271 53.9201L32.0152 49.2601H32.3465L34.8642 54.0001L34.9588 48.4301H35.6308L35.5078 55.4301H34.9304L32.1477 50.2001L29.2041 55.3301L28.6267 55.3201Z" fill="#303030"/>
<path d="M25.3329 48.0001C25.7657 48.4359 26.0754 48.9902 26.2275 49.6012C26.3796 50.2121 26.3681 50.8557 26.1942 51.4601C26.0387 52.079 25.728 52.6421 25.295 53.0901C24.8742 53.5271 24.3465 53.8318 23.7712 53.9701C23.1642 54.1148 22.5323 54.0941 21.9349 53.9101C21.3396 53.7565 20.7919 53.443 20.3448 53.0001C19.9184 52.5698 19.6137 52.0228 19.4646 51.4201C19.319 50.7971 19.3297 50.1447 19.4957 49.5274C19.6617 48.9101 19.9772 48.3492 20.4111 47.9001C20.8244 47.4642 21.3408 47.1534 21.9065 47.0001C22.5104 46.8558 23.1391 46.8765 23.7333 47.0601C24.3348 47.2212 24.8861 47.5452 25.3329 48.0001ZM22.1053 47.6501C21.6423 47.764 21.2191 48.0135 20.8843 48.3701C20.5357 48.737 20.2872 49.1965 20.165 49.7001C20.033 50.2006 20.033 50.7296 20.165 51.2301C20.2766 51.717 20.5161 52.1607 20.8559 52.5101C21.2123 52.8783 21.6523 53.1435 22.1337 53.2801C22.615 53.4096 23.1194 53.4096 23.6008 53.2801C24.0641 53.1597 24.4888 52.9112 24.8312 52.5601C25.178 52.1917 25.4262 51.7328 25.5506 51.2301C25.6829 50.7263 25.6829 50.1939 25.5506 49.6901C25.4294 49.205 25.1876 48.7631 24.8502 48.4101C24.4919 48.0414 24.0479 47.7792 23.5629 47.6501C23.086 47.5108 22.5822 47.5108 22.1053 47.6501Z" fill="#303030"/>
<path d="M14.9403 43L15.1958 45.75C15.3582 45.8233 15.5162 45.9068 15.6691 46L17.2119 46.94L18.253 45L18.8683 45.37L15.5555 51.4L13.3975 50.09C12.7596 49.7515 12.2564 49.1844 11.9777 48.49C11.8748 48.1772 11.8401 47.8439 11.8762 47.5149C11.9122 47.1859 12.0181 46.8698 12.186 46.59C12.406 46.1518 12.7547 45.8008 13.1798 45.59C13.6115 45.4011 14.0889 45.3626 14.5428 45.48L14.2683 42.54L14.9403 43ZM13.8613 46.16C13.639 46.219 13.4302 46.3247 13.2475 46.4708C13.0647 46.617 12.9118 46.8006 12.7978 47.0107C12.6838 47.2207 12.6111 47.4529 12.584 47.6934C12.557 47.9338 12.5761 48.1776 12.6403 48.41C12.8621 48.9276 13.2467 49.3481 13.7288 49.6L15.2526 50.53L16.909 47.53L15.3851 46.6C14.9471 46.2533 14.4079 46.0799 13.8613 46.11V46.16Z" fill="#303030"/>
<path d="M9.33699 38.3101L9.76291 37.8601L13.0283 41.4101L8.29583 46.2901L5.14398 42.8501L5.57937 42.4001L8.25797 45.3101L9.87649 43.5801L7.52917 41.0001L7.98349 40.5401L10.3781 43.1401L12.1386 41.3301L9.33699 38.3101Z" fill="#303030"/>
<path d="M2.30355 34.38L2.53071 33L2.97556 33.07L2.72001 34.49L3.97885 34L4.13029 34.44L2.85252 34.9L3.90313 35.84L3.60025 36.2L2.5875 35.2L2.35087 36.62L1.89655 36.53L2.16157 35.11L0.893257 35.59L0.751282 35.2L2.01959 34.73L0.968977 33.8L1.28132 33.44L2.30355 34.38Z" fill="#303030"/>
</g>
<defs>
<clipPath id="clip0_53_6">
<rect width="65.2424" height="55.46" fill="white" transform="translate(0.411499)"/>
</clipPath>
</defs>
</svg>
