<svg aria-hidden="true" style="position:absolute;width:0;height:0;overflow:hidden" xmlns="http://www.w3.org/2000/svg">
    <defs>
        <symbol id="icon-envelop" viewBox="0 0 16 12">
            <path d="M14.5 0H1.50001C0.672854 0 0 0.672853 0 1.50001V10.5C0 11.3271 0.672854 12 1.50001 12H14.5C15.3271 12 16 11.3271 16 10.5V1.50001C16 0.672853 15.3271 0 14.5 0ZM14.5 0.999994C14.5679 0.999994 14.6325 1.01409 14.6916 1.0387L8 6.83838L1.30833 1.0387C1.36742 1.01412 1.43204 0.999994 1.49998 0.999994H14.5ZM14.5 11H1.50001C1.22414 11 0.999996 10.7759 0.999996 10.5V2.09521L7.67236 7.87792C7.76661 7.95944 7.8833 7.99999 8 7.99999C8.1167 7.99999 8.23339 7.95948 8.32764 7.87792L15 2.09521V10.5C15 10.7759 14.7759 11 14.5 11Z"/>
        </symbol>
        <symbol id="icon-mobile" viewBox="0 0 10 16">
            <path d="M8.5 0H1.5C0.672848 0 0 0.672848 0 1.5V14.5C0 15.3272 0.672848 16 1.5 16H8.5C9.32715 16 10 15.3272 10 14.5V1.5C10 0.672848 9.32715 0 8.5 0ZM1.5 1H8.5C8.77588 1 9 1.22412 9 1.5V12H1V1.5C1 1.22412 1.22412 1 1.5 1ZM8.5 15H1.5C1.22412 15 1 14.7759 1 14.5V13H9V14.5C9 14.7759 8.77588 15 8.5 15Z"/>
            <path d="M2.35355 13.7389C2.54882 13.9213 2.54882 14.2169 2.35355 14.3992C2.15828 14.5816 1.84172 14.5816 1.64645 14.3992C1.45118 14.2169 1.45118 13.9213 1.64645 13.7389C1.84172 13.5566 2.15828 13.5566 2.35355 13.7389Z"/>
        </symbol>
        <symbol id="icon-facebook" viewBox="0 0 32 32">
            <path d="M19 6h5V0h-5c-3.86 0-7 3.14-7 7v3H8v6h4v16h6V16h5l1-6h-6V7c0-.542.458-1 1-1z"/>
        </symbol>
        <symbol id="icon-instagram" viewBox="0 0 32 32">
            <path d="M16 2.881c4.275 0 4.781.019 6.462.094 1.563.069 2.406.331 2.969.55a4.952 4.952 0 0 1 1.837 1.194 5.015 5.015 0 0 1 1.2 1.838c.219.563.481 1.412.55 2.969.075 1.688.094 2.194.094 6.463s-.019 4.781-.094 6.463c-.069 1.563-.331 2.406-.55 2.969a4.94 4.94 0 0 1-1.194 1.837 5.02 5.02 0 0 1-1.837 1.2c-.563.219-1.413.481-2.969.55-1.688.075-2.194.094-6.463.094s-4.781-.019-6.463-.094c-1.563-.069-2.406-.331-2.969-.55a4.952 4.952 0 0 1-1.838-1.194 5.02 5.02 0 0 1-1.2-1.837c-.219-.563-.481-1.413-.55-2.969-.075-1.688-.094-2.194-.094-6.463s.019-4.781.094-6.463c.069-1.563.331-2.406.55-2.969a4.964 4.964 0 0 1 1.194-1.838 5.015 5.015 0 0 1 1.838-1.2c.563-.219 1.412-.481 2.969-.55 1.681-.075 2.188-.094 6.463-.094zM16 0c-4.344 0-4.887.019-6.594.094-1.7.075-2.869.35-3.881.744-1.056.412-1.95.956-2.837 1.85a7.833 7.833 0 0 0-1.85 2.831C.444 6.538.169 7.7.094 9.4.019 11.113 0 11.656 0 16s.019 4.887.094 6.594c.075 1.7.35 2.869.744 3.881.413 1.056.956 1.95 1.85 2.837a7.82 7.82 0 0 0 2.831 1.844c1.019.394 2.181.669 3.881.744 1.706.075 2.25.094 6.594.094s4.888-.019 6.594-.094c1.7-.075 2.869-.35 3.881-.744 1.05-.406 1.944-.956 2.831-1.844s1.438-1.781 1.844-2.831c.394-1.019.669-2.181.744-3.881.075-1.706.094-2.25.094-6.594s-.019-4.887-.094-6.594c-.075-1.7-.35-2.869-.744-3.881a7.506 7.506 0 0 0-1.831-2.844A7.82 7.82 0 0 0 26.482.843C25.463.449 24.301.174 22.601.099c-1.712-.081-2.256-.1-6.6-.1z"/>
            <path d="M16 7.781c-4.537 0-8.219 3.681-8.219 8.219s3.681 8.219 8.219 8.219 8.219-3.681 8.219-8.219A8.221 8.221 0 0 0 16 7.781zm0 13.55a5.331 5.331 0 1 1 0-10.663 5.331 5.331 0 0 1 0 10.663zM26.462 7.456a1.919 1.919 0 1 1-3.838 0 1.919 1.919 0 0 1 3.838 0z"/>
        </symbol>
        <symbol id="icon-twitter" viewBox="0 0 32 32">
            <path d="M32 6.078c-1.19.522-2.458.868-3.78 1.036a6.523 6.523 0 0 0 2.886-3.626 13.11 13.11 0 0 1-4.16 1.588A6.574 6.574 0 0 0 22.154 3c-3.632 0-6.556 2.948-6.556 6.562 0 .52.044 1.02.152 1.496-5.454-.266-10.28-2.88-13.522-6.862a6.605 6.605 0 0 0-.898 3.316 6.57 6.57 0 0 0 2.914 5.452 6.479 6.479 0 0 1-2.964-.808v.072c0 3.188 2.274 5.836 5.256 6.446a6.548 6.548 0 0 1-1.72.216 5.8 5.8 0 0 1-1.242-.112c.85 2.598 3.262 4.508 6.13 4.57a13.182 13.182 0 0 1-8.134 2.798c-.538 0-1.054-.024-1.57-.09A18.469 18.469 0 0 0 10.064 29c12.072 0 18.672-10 18.672-18.668 0-.29-.01-.57-.024-.848A13.087 13.087 0 0 0 32 6.078z"/>
        </symbol>
        <symbol id="icon-linkedin2" viewBox="0 0 32 32">
            <path d="M31.992 32v-.001H32V20.263c0-5.741-1.236-10.164-7.948-10.164-3.227 0-5.392 1.771-6.276 3.449h-.093v-2.913h-6.364v21.364h6.627V21.42c0-2.785.528-5.479 3.977-5.479 3.399 0 3.449 3.179 3.449 5.657v10.401h6.62zM.528 10.636h6.635V32H.528V10.636zM3.843 0C1.722 0 0 1.721 0 3.843s1.721 3.879 3.843 3.879c2.121 0 3.843-1.757 3.843-3.879A3.846 3.846 0 0 0 3.843 0z"/>
        </symbol>
        <symbol id="icon-antena" viewBox="0 0 70 70" xmlns="http://www.w3.org/2000/svg">
            <path d="m67.316 48.339-18.47-18.605 2.05-10.097a4.655 4.655 0 0 0 1.66.319h.014a4.723 4.723 0 1 0-4.394-3.14l-10.85 1.325L19.628.35a1.166 1.166 0 0 0-.824-.35c-.306.002-.6.124-.817.34L14.68 3.63a1.167 1.167 0 0 0 0 1.65l1.78 1.805a32.686 32.686 0 0 0 5.511 38.638c.094.09.202.161.32.213a6.77 6.77 0 0 0-.114 1.197v13.534h-14A5.84 5.84 0 0 0 2.342 66.5v2.333c0 .645.523 1.167 1.167 1.167h53.667c.644 0 1.166-.522 1.166-1.167V66.5a5.84 5.84 0 0 0-5.833-5.833h-14v-5.998c2.193.46 4.428.694 6.669.7a32.483 32.483 0 0 0 15.4-3.901l1.79 1.8c.216.221.513.347.823.35.306-.002.6-.124.817-.34l3.308-3.29a1.167 1.167 0 0 0 0-1.65ZM50.925 13.635a2.333 2.333 0 1 1 1.645 3.987h-.008a2.333 2.333 0 0 1-1.633-3.987h-.004ZM48.178 21.3l-1.309 6.444-2.571-2.587 3.88-3.857Zm-1.325-1.973-4.2 4.176-3.25-3.267 7.45-.909ZM52.509 63a3.5 3.5 0 0 1 3.5 3.5v1.167H4.676V66.5a3.5 3.5 0 0 1 3.5-3.5h44.333Zm-16.333-4.667v2.334H24.509v-2.334h11.667ZM24.509 56v-8.867c0-2.83 2.617-5.133 5.833-5.133 3.217 0 5.834 2.303 5.834 5.133V56H24.509Zm14-3.71v-5.157c0-4.117-3.663-7.466-8.167-7.466a8.312 8.312 0 0 0-7.177 3.907A30.34 30.34 0 0 1 18.18 8.82l40.692 40.925a30.233 30.233 0 0 1-20.363 2.544Zm24.695-1.496-1.644-1.653L18.792 6.116l-1.65-1.655 1.65-1.645L36.15 20.272c.008 0 .013.015.021.021l28.688 28.856-1.655 1.645Z" fill="#212121"/>
            <path d="M30.353 44.333h-.01a3.5 3.5 0 0 0-.011 7h.01a3.5 3.5 0 1 0 .01-7Zm.816 4.328a1.167 1.167 0 1 1-.827-1.994 1.166 1.166 0 0 1 .817 1.993h.01Z" fill="#2196F3"/>
        </symbol>
        <symbol id="icon-astronavt" viewBox="0 0 70 70" xmlns="http://www.w3.org/2000/svg">
            <path d="M69.943 9.896a1.168 1.168 0 0 0-.941-.793l-4.18-.608-1.87-3.787c-.391-.798-1.7-.798-2.091 0l-1.87 3.787-4.18.608a1.167 1.167 0 0 0-.648 1.99l3.026 2.948-.714 4.162c-.075.438.105.88.463 1.142.363.263.837.296 1.23.088l3.738-1.966 3.738 1.966a1.168 1.168 0 0 0 1.693-1.23l-.714-4.162 3.025-2.949a1.17 1.17 0 0 0 .295-1.196ZM64.556 12.8c-.275.267-.4.655-.335 1.033l.417 2.437-2.188-1.15a1.165 1.165 0 0 0-1.088 0l-2.188 1.15.417-2.437a1.168 1.168 0 0 0-.334-1.033l-1.773-1.727 2.448-.355c.38-.055.708-.294.879-.639l1.094-2.216 1.094 2.216c.17.345.498.584.879.639l2.448.355-1.77 1.727ZM57.167 44.892h-2.333v2.334h2.333v-2.334ZM57.167 49.56h-2.333v2.332h2.333V49.56ZM59.5 47.226h-2.333v2.333H59.5v-2.333ZM54.834 47.226H52.5v2.333h2.334v-2.333ZM49 57.726h-2.333v2.333H49v-2.333ZM49 62.393h-2.333v2.333H49v-2.333ZM51.334 60.06H49v2.333h2.334v-2.334ZM46.667 60.06h-2.334v2.333h2.334v-2.334ZM35 53.06h-2.333v2.333H35v-2.334ZM35 57.726h-2.333v2.333H35v-2.333ZM37.333 55.392H35v2.334h2.333v-2.334ZM32.667 55.392h-2.334v2.334h2.334v-2.334ZM12.833 13.392H10.5v2.333h2.333v-2.333ZM12.833 18.059H10.5v2.333h2.333V18.06ZM15.166 15.725h-2.333v2.334h2.333v-2.334ZM10.5 15.725H8.166v2.334H10.5v-2.334Z" fill="#2196F3"/>
            <path d="M54.064 30.974a3.88 3.88 0 0 0-2.6-1.541 3.886 3.886 0 0 0-2.93.77L45.794 32.3l-.001.002-4.151 3.1-2.97-1.184c5.296-2.376 8.998-7.674 8.998-13.825 0-8.363-6.83-15.167-15.227-15.167s-15.228 6.804-15.228 15.167c0 3.031.907 5.85 2.45 8.222l-6.046-.053h-.01c-.019 0-.034.01-.051.01a1.14 1.14 0 0 0-.34.069c-.028.01-.057.016-.084.029-.014.006-.028.007-.042.014l-7.072 3.491c-.001 0-.003 0-.003.002l-4.141 1.991a.915.915 0 0 0-.138.077A3.895 3.895 0 0 0 .43 39.268a3.884 3.884 0 0 0 2.31 1.944 3.891 3.891 0 0 0 3.016-.281l3.036-1.614 4.952-2.558 2.968-.017L4.808 48.588c0 .002-.002.002-.003.003l-2.928 2.916a3.607 3.607 0 0 0-1.073 2.577 3.647 3.647 0 0 0 3.652 3.64c.936 0 1.869-.355 2.582-1.062l2.875-2.863 3.808-2.843 1.97 1.962-3.853 3.837-.004.002-2.928 2.917a3.607 3.607 0 0 0-1.073 2.576c0 .973.38 1.889 1.073 2.579a3.65 3.65 0 0 0 2.58 1.061c.935 0 1.87-.354 2.582-1.061l2.93-2.917 4.686-4.667.002-.003 2.21-2.188-.01-.008c.015-.014.035-.019.049-.034l11.3-12.377 7.593 1.08c.055.008.11.012.165.012.14 0 .277-.034.41-.084.038-.014.071-.033.108-.051.042-.021.086-.033.126-.06l7.029-4.666c.026-.018.04-.046.064-.065.028-.022.063-.031.089-.056l2.78-2.605a3.892 3.892 0 0 0 .465-5.166ZM4.66 38.872a1.56 1.56 0 0 1-1.221.113 1.565 1.565 0 0 1-.465-2.755l2.874-1.383.692 2.022.29.85-2.17 1.153Zm7.65-3.998-3.387 1.75-.558-1.633-.402-1.174 4.434-2.189-.087 3.246Zm33.03-14.482c0 2.009-.48 3.904-1.31 5.599l-9.147-4.155a4.07 4.07 0 0 0-1.724-3.035l3.203-10.633c5.2 1.655 8.978 6.507 8.978 12.224Zm-25.788 0c0-7.076 5.784-12.834 12.894-12.834.553 0 1.094.047 1.63.115L30.943 18.07c-.042 0-.081-.013-.125-.013a4.094 4.094 0 0 0-4.096 4.084 4.095 4.095 0 0 0 4.096 4.083c1.52 0 2.832-.838 3.54-2.066l8.45 3.838c-2.352 3.165-6.114 5.228-10.362 5.228-7.11 0-12.894-5.757-12.894-12.833Zm13.03 1.75c0 .965-.792 1.75-1.764 1.75a1.759 1.759 0 0 1-1.762-1.75c0-.965.79-1.75 1.762-1.75s1.763.785 1.763 1.75ZM5.391 55.007a1.33 1.33 0 0 1-1.87.002 1.3 1.3 0 0 1 0-1.847l2.105-2.097L7.49 52.92l-2.097 2.088Zm7.03 8.167a1.33 1.33 0 0 1-1.87.002 1.299 1.299 0 0 1 0-1.847l2.106-2.098.88.876.983.978-2.099 2.09Zm7.616-7.588-.003.003-3.86 3.85-.882-.877-.982-.977 3.857-3.84v-.001l.004-.002c.087-.088.142-.193.196-.297.015-.03.044-.056.057-.087.036-.09.042-.187.056-.281.007-.054.03-.104.03-.16 0-.077-.028-.153-.044-.23-.014-.07-.014-.141-.041-.209a1.166 1.166 0 0 0-.2-.301c-.022-.026-.03-.058-.054-.083h-.002s0-.003-.002-.005l-3.515-3.5c-.037-.037-.085-.052-.127-.084a1.122 1.122 0 0 0-.19-.126 1.091 1.091 0 0 0-.204-.07 1.134 1.134 0 0 0-.226-.044 1.142 1.142 0 0 0-.209.01c-.078.01-.151.02-.227.045-.074.023-.139.06-.206.098-.044.024-.093.033-.133.063l-3.88 2.896-1.97-1.963 5.248-5.22 9.538 9.382-2.029 2.01Zm14.917-15.349c-.034-.005-.066.008-.1.006a1.148 1.148 0 0 0-.252.015 1.081 1.081 0 0 0-.404.15c-.065.04-.124.081-.181.134-.028.024-.062.036-.088.064L23.653 51.862l-9.468-9.311 6.197-6.165a1.168 1.168 0 0 0-.83-1.993l-4.854.028.061-3.516 6.79.058a15.2 15.2 0 0 0 10.897 4.596c.957 0 1.89-.1 2.799-.268.087.07.174.14.283.185l5.272 2.1.333 1.659.39 1.937-6.569-.935Zm8.84.39-.685-3.408 3.164-2.363.828 1.1 1.242 1.649-4.55 3.022Zm8.21-6.193-1.832 1.717-2.037-2.704 1.818-1.394c.34-.261.768-.368 1.188-.313.422.06.796.28 1.05.622a1.562 1.562 0 0 1-.187 2.072Z" fill="#212121"/>
            <path d="m29.755 40.565-4.688-4.667a1.166 1.166 0 0 0-1.646 0l-4.687 4.667a1.172 1.172 0 0 0 0 1.654l4.686 4.667a1.166 1.166 0 0 0 1.647 0l4.688-4.667a1.167 1.167 0 0 0 0-1.654Zm-5.51 3.848-3.034-3.02 3.033-3.021 3.035 3.02-3.035 3.02ZM37.547 11.092l-.564 2.266c.156.039 3.801.988 3.801 4.7h2.334c0-4.412-3.644-6.486-5.571-6.966ZM43.118 20.392h-2.334v2.333h2.334v-2.333Z" fill="#212121"/>
        </symbol>
        <symbol id="icon-clock" viewBox="0 0 70 70" xmlns="http://www.w3.org/2000/svg">
            <path d="M68.461 33.471C68.458 14.982 53.466-.004 34.975 0 16.485.004 1.5 14.996 1.504 33.486A33.479 33.479 0 0 0 24.799 65.37c.133.042.27.063.41.063.263 0 .521-.071.748-.205.296-.175.516-.453.62-.78l8.454-26.797a4.184 4.184 0 1 0-1.837-7.95L22.025 18.53a1.395 1.395 0 0 0-1.972 1.973l11.163 11.176a4.104 4.104 0 0 0 1.173 5.051l-8.055 25.535C8.414 56.4.262 38.74 6.126 22.82 11.991 6.9 29.65-1.252 45.571 4.613c15.92 5.864 24.072 23.524 18.207 39.444A30.72 30.72 0 0 1 47.455 61.5l-.87-4.1a1.394 1.394 0 0 0-2.294-.752l-8.393 7.494a1.394 1.394 0 0 0 .505 2.372l10.716 3.42a1.394 1.394 0 0 0 1.791-1.619l-.855-4.022a33.37 33.37 0 0 0 20.406-30.82Zm-33.478-1.394a1.395 1.395 0 1 1 0 2.79 1.395 1.395 0 0 1 0-2.79Zm4.594 32.515 4.778-4.262 1.319 6.213-6.097-1.951Z" fill="#212121"/>
            <path d="M33.588 6.967v2.79a1.395 1.395 0 1 0 2.79 0v-2.79a1.395 1.395 0 0 0-2.79 0ZM8.479 32.077a1.395 1.395 0 0 0 0 2.79h2.79a1.395 1.395 0 1 0 0-2.79h-2.79ZM61.487 34.867a1.395 1.395 0 1 0 0-2.79h-2.79a1.395 1.395 0 0 0 0 2.79h2.79Z" fill="#2196F3"/>
        </symbol>
        <symbol id="icon-diagram" viewBox="0 0 70 70" xmlns="http://www.w3.org/2000/svg">
            <path d="M32.65 32.735h2.332V43.23H32.65V32.735ZM41.978 37.4h2.332v5.83h-2.332V37.4ZM23.321 40.898h2.332v2.332h-2.332v-2.332ZM16.325 39.731h2.332v3.498h-2.332v-3.498Z" fill="#2196F3"/>
            <path d="M3.498 61.886h55.97a3.498 3.498 0 0 0 3.499-3.498v-4.664a3.498 3.498 0 0 0-3.498-3.498h-1.166v-29.08l6.623-6.274a3.518 3.518 0 1 0-1.633-1.668l-4.99 4.73v-2.69a3.498 3.498 0 0 0-3.498-3.498H8.162a3.498 3.498 0 0 0-3.498 3.498v34.982H3.498A3.498 3.498 0 0 0 0 53.724v4.664a3.498 3.498 0 0 0 3.498 3.498ZM66.465 10.58a1.166 1.166 0 1 1 0 2.332 1.166 1.166 0 0 1 0-2.332ZM6.996 15.244c0-.644.522-1.166 1.166-1.166h46.643c.644 0 1.166.522 1.166 1.166v4.897l-2.332 2.216v-4.78c0-.645-.523-1.167-1.167-1.167H10.495c-.644 0-1.167.522-1.167 1.166v29.152c0 .644.523 1.166 1.167 1.166h41.977c.645 0 1.167-.522 1.167-1.166V25.565l2.332-2.21v26.87H6.996v-34.98Zm10.495 15.159a3.498 3.498 0 1 0 2.422 6.012l4.053 2.034c.471.235 1.042.125 1.392-.268l8.616-9.694 8.47 6.347c.455.34 1.089.304 1.501-.086l7.361-6.973v17.787H11.661v-26.82h39.645v5.82l-8.25 7.813-8.54-6.403a1.167 1.167 0 0 0-1.572.157l-8.734 9.828-3.265-1.633c.023-.14.038-.281.044-.423a3.498 3.498 0 0 0-3.498-3.498Zm1.166 3.498a1.166 1.166 0 1 1-2.332 0 1.166 1.166 0 0 1 2.332 0Zm6.996 18.657h11.66v1.166c0 .644-.521 1.166-1.165 1.166h-9.329a1.166 1.166 0 0 1-1.166-1.166v-1.166Zm-23.32 1.166c0-.644.521-1.166 1.165-1.166h19.823v1.166a3.498 3.498 0 0 0 3.498 3.498h9.329a3.498 3.498 0 0 0 3.498-3.498v-1.166h19.823c.644 0 1.166.522 1.166 1.166v4.664c0 .644-.522 1.166-1.166 1.166H3.499a1.166 1.166 0 0 1-1.167-1.166v-4.664Z" fill="#212121"/>
        </symbol>
        <symbol id="icon-client-1" viewBox="0 0 106 60" xmlns="http://www.w3.org/2000/svg">
            <path d="m38 7 7.008 6.634L32 13.626v32.188h34V33.507l7 6.627V7H38Zm27.692 25.728-19.87-18.81h19.87v18.81Zm-6.169 8.377H37.38V19.459h1.565V39.64h20.578v1.465ZM42.61 50.1l-.818 1.685-.818-1.685h-.686l1.194 2.246v1.309h.62v-1.309l1.191-2.246h-.683Zm1.028 3.555.288-.828h1.377l.29.828h.645l-1.345-3.555h-.555l-1.342 3.555h.642Zm.976-2.8.515 1.474h-1.03l.515-1.475Zm3.257 1.389a.807.807 0 0 0-.134.451c0 .3.105.543.315.73.211.186.493.279.844.279.352 0 .655-.096.909-.286l.2.237h.688l-.522-.618c.205-.28.307-.639.307-1.077h-.515c0 .24-.05.457-.149.652l-.686-.81.242-.176a1.34 1.34 0 0 0 .369-.371.785.785 0 0 0 .112-.41.732.732 0 0 0-.249-.564.895.895 0 0 0-.635-.23c-.286 0-.514.082-.683.244-.17.162-.254.381-.254.66 0 .114.027.231.08.354.056.122.153.27.29.444-.263.189-.44.352-.529.49Zm1.604.786a.905.905 0 0 1-.561.2.585.585 0 0 1-.425-.154.533.533 0 0 1-.159-.4c0-.19.098-.36.293-.508l.076-.054.776.916Zm-.637-1.575c-.168-.207-.252-.378-.252-.515 0-.119.035-.217.103-.295a.348.348 0 0 1 .276-.118.37.37 0 0 1 .266.1c.07.066.105.145.105.237a.44.44 0 0 1-.151.345l-.076.06-.271.186Zm5.786 1.931c.244-.213.384-.51.42-.888h-.615c-.033.254-.11.435-.232.544-.122.11-.305.164-.547.164-.265 0-.467-.101-.605-.303-.137-.202-.206-.495-.206-.88v-.314c.004-.38.077-.666.22-.862.145-.197.352-.295.62-.295.231 0 .406.057.525.17.12.113.195.297.225.552h.615c-.04-.389-.178-.69-.417-.903-.24-.213-.555-.32-.948-.32-.291 0-.548.07-.771.208a1.346 1.346 0 0 0-.51.59 2.082 2.082 0 0 0-.179.887v.332c.005.327.066.614.183.862.118.247.284.438.498.573.217.134.467.2.75.2.405 0 .73-.105.974-.317Zm3.63-.498c.12-.264.181-.57.181-.918v-.197a2.149 2.149 0 0 0-.185-.911 1.356 1.356 0 0 0-.52-.6c-.224-.14-.48-.21-.77-.21-.29 0-.546.07-.771.212-.223.14-.396.342-.52.608a2.174 2.174 0 0 0-.183.918v.2c.002.34.063.64.185.9.124.261.298.462.523.604.226.14.483.21.771.21.292 0 .549-.07.772-.21.224-.142.397-.344.517-.606Zm-.661-2.01c.15.21.224.513.224.907v.185c0 .4-.074.705-.222.913-.146.209-.356.313-.63.313a.738.738 0 0 1-.634-.32c-.152-.213-.227-.515-.227-.906v-.205c.003-.382.08-.678.229-.886a.731.731 0 0 1 .627-.315c.274 0 .485.105.633.315Z"/>
        </symbol>
        <symbol id="icon-client-2" viewBox="0 0 106 60" xmlns="http://www.w3.org/2000/svg">
            <path d="M50.114 5.935h-.137c-.21-.013-.42-.018-.63-.023h-.455c-.397 0-.802.01-1.204.03a.625.625 0 0 0-.091 0A28.275 28.275 0 0 0 37.08 8.625l-.432.208v22.142l1.012-.344c.888-.305 1.834-.58 2.813-.834a34.329 34.329 0 0 1 8.095-1.075v2.909c-.362.002-.713.012-1.065.03h-.084a32.36 32.36 0 0 0-6.228.956 31.635 31.635 0 0 0-7.42 2.892V7.112a29.727 29.727 0 0 1 7.785-3.166A29.793 29.793 0 0 1 48.892 3h.427c.511.013 1.01.036 1.478.071 1.233.087 2.456.282 3.655.583v2.863a22.623 22.623 0 0 0-3.541-.534l-.073-.006c-.247-.021-.494-.042-.724-.042Zm5.039 2.926c.635.049 1.293.072 1.958.072a31.467 31.467 0 0 0 7.713-.99A31.777 31.777 0 0 0 72.24 5.05v27.89a29.815 29.815 0 0 1-7.786 3.166 29.943 29.943 0 0 1-7.337.944 22.405 22.405 0 0 1-5.565-.656V8.322c.43.1.873.191 1.323.267.739.125 1.518.216 2.277.272Zm14.194.217-1.012.34c-.93.313-1.87.593-2.813.842a34.263 34.263 0 0 1-8.406 1.078c-.66 0-1.267-.018-1.854-.056l-.807-.053V34.006l.693.06c.642.057 1.305.085 1.973.085a26.884 26.884 0 0 0 6.62-.857 27.764 27.764 0 0 0 5.174-1.86l.432-.208V9.078Z"/>
            <path d="M35.737 45.212a1.491 1.491 0 0 0-1.126-.455 1.672 1.672 0 0 0-.65.122 1.464 1.464 0 0 0-.832.842c-.08.2-.119.413-.116.628v3.794c-.01.267.042.533.149.778.09.195.219.368.38.509.151.127.329.22.52.27.185.051.376.078.567.078.211.002.42-.043.612-.132a1.6 1.6 0 0 0 .96-1.465v-.424h-.993v.338a.88.88 0 0 1-.058.338.608.608 0 0 1-.144.214.697.697 0 0 1-.415.145.503.503 0 0 1-.465-.204.898.898 0 0 1-.132-.508v-3.538c-.006-.196.036-.39.122-.567a.507.507 0 0 1 .485-.229.527.527 0 0 1 .443.214.806.806 0 0 1 .164.509v.328h.982v-.387a1.79 1.79 0 0 0-.121-.664 1.56 1.56 0 0 0-.332-.534ZM41.629 45.17a1.765 1.765 0 0 0-1.128-.418c-.202 0-.403.037-.592.107A1.56 1.56 0 0 0 39 45.7c-.1.231-.15.482-.145.735v3.638c-.007.256.043.51.145.745.09.196.22.37.384.509.152.14.33.25.524.32.19.07.39.106.592.107a1.714 1.714 0 0 0 1.128-.427c.158-.142.285-.315.374-.509.102-.234.151-.489.145-.745v-3.639a1.77 1.77 0 0 0-.145-.734 1.641 1.641 0 0 0-.374-.532Zm-.463 4.904a.656.656 0 0 1-.197.527.727.727 0 0 1-.934 0 .65.65 0 0 1-.197-.527v-3.639a.653.653 0 0 1 .197-.526.726.726 0 0 1 .934 0 .652.652 0 0 1 .197.526v3.64ZM49.367 51.7v-6.89h-.953l-1.253 3.647h-.017l-1.263-3.646h-.943v6.888h.984v-4.19h.018l.963 2.962h.491l.971-2.962h.018v4.19h.984ZM54.958 45.294c-.151-.17-.343-.3-.556-.377a2.184 2.184 0 0 0-.714-.107h-1.462v6.89h.982v-2.691h.505c.307.014.611-.051.886-.188a1.43 1.43 0 0 0 .539-.527c.113-.183.19-.387.225-.6a4.9 4.9 0 0 0 .053-.783c.01-.33-.023-.662-.096-.984a1.466 1.466 0 0 0-.362-.633Zm-.506 2.1a.867.867 0 0 1-.091.359.552.552 0 0 1-.253.241 1.006 1.006 0 0 1-.463.087h-.448v-2.342h.506a.942.942 0 0 1 .443.086.556.556 0 0 1 .23.254c.054.121.083.252.086.384v.458c0 .16.01.326 0 .473h-.01ZM59.608 44.81h-.805l-1.518 6.89h.982l.288-1.48h1.339l.288 1.48h.981l-1.555-6.89Zm-.906 4.471.483-2.497h.018l.48 2.497h-.981ZM65.95 48.96h-.018l-1.482-4.15h-.944v6.89h.981v-4.143h.02l1.5 4.142h.924v-6.888h-.981v4.15ZM71.948 44.81l-.79 2.74h-.02l-.79-2.74H69.31l1.348 3.978v2.911h.982v-2.911l1.348-3.977h-1.04ZM33 53.645h.473v1.327h.321v-1.328h.47v-.272H33v.273ZM36.977 53.372l-.62 1.6h.341l.132-.364h.638l.136.364h.35l-.636-1.6h-.341Zm-.05.967.217-.593.217.593h-.435ZM40.908 54.382h.37v.206a.613.613 0 0 1-.38.135.404.404 0 0 1-.34-.153.67.67 0 0 1-.118-.417c0-.356.154-.534.46-.534a.337.337 0 0 1 .362.255l.316-.062c-.068-.312-.293-.47-.678-.47a.804.804 0 0 0-.559.206.78.78 0 0 0-.23.615.872.872 0 0 0 .205.6.776.776 0 0 0 .607.235.96.96 0 0 0 .678-.255v-.63h-.693v.27ZM44.923 53.372h-.324v1.6h1.12V54.7h-.796v-1.328ZM48.318 53.372h-.324v1.6h.324v-1.6ZM51.636 54.44l-.655-1.068h-.313v1.6h.3v-1.045l.643 1.045h.322v-1.6h-.297v1.069ZM54.637 54.267h.797v-.272h-.797v-.35h.857v-.273h-1.181v1.6h1.214V54.7h-.89v-.433ZM61.912 54.003h-.63v-.63h-.32v1.599h.32v-.7h.63v.7h.322v-1.6h-.322v.631ZM64.93 54.267h.8v-.272h-.8v-.35h.86v-.273H64.61v1.6h1.212V54.7h-.89v-.433ZM69.023 54.268c.279-.044.42-.191.42-.445a.383.383 0 0 0-.157-.356.904.904 0 0 0-.468-.094h-.678v1.599h.322v-.669h.063a.431.431 0 0 1 .2.036c.047.029.086.069.114.117l.349.508h.384l-.195-.312a1.115 1.115 0 0 0-.354-.384Zm-.324-.222h-.237v-.401h.253a.84.84 0 0 1 .326.038.21.21 0 0 1-.015.325.913.913 0 0 1-.327.038ZM72.11 54.267h.796v-.272h-.796v-.35h.86v-.273h-1.184v1.6H73V54.7h-.89v-.433Z"/>
        </symbol>
        <symbol id="icon-client-3" viewBox="0 0 106 60" xmlns="http://www.w3.org/2000/svg">
            <path d="M36.406 49.101c.016 0 .032.004.046.01a.121.121 0 0 1 .039.024l.218.208c-.17.169-.379.304-.614.396a2.39 2.39 0 0 1-.87.142c-.28.005-.558-.04-.817-.133a1.794 1.794 0 0 1-.617-.374 1.674 1.674 0 0 1-.397-.578 1.926 1.926 0 0 1-.14-.742 1.724 1.724 0 0 1 .573-1.322c.186-.163.409-.291.654-.377.269-.09.555-.135.843-.132a2.27 2.27 0 0 1 .782.12c.216.082.414.195.587.335l-.183.222a.178.178 0 0 1-.046.04.125.125 0 0 1-.074.017.178.178 0 0 1-.08-.023l-.097-.06-.137-.076a1.548 1.548 0 0 0-.43-.132 1.891 1.891 0 0 0-.325-.024 1.76 1.76 0 0 0-.605.1 1.39 1.39 0 0 0-.475.28c-.136.128-.24.28-.308.445a1.5 1.5 0 0 0-.111.587 1.53 1.53 0 0 0 .111.597c.067.164.17.314.303.443.125.12.28.215.453.275.178.064.368.096.561.095.111.001.223-.005.333-.019a1.316 1.316 0 0 0 .72-.306.171.171 0 0 1 .103-.038ZM42.704 48.054a1.81 1.81 0 0 1-.147.737 1.594 1.594 0 0 1-.41.572 1.889 1.889 0 0 1-.645.375 2.655 2.655 0 0 1-1.658 0 1.91 1.91 0 0 1-.64-.377 1.678 1.678 0 0 1-.415-.578 1.922 1.922 0 0 1 0-1.475c.093-.216.234-.413.415-.58.182-.159.4-.282.64-.363a2.61 2.61 0 0 1 1.658 0c.242.085.461.213.643.376.18.165.32.36.412.571.101.238.151.489.147.742Zm-.572 0a1.566 1.566 0 0 0-.104-.593 1.22 1.22 0 0 0-.752-.722 1.918 1.918 0 0 0-1.205 0 1.295 1.295 0 0 0-.461.28 1.191 1.191 0 0 0-.295.443 1.737 1.737 0 0 0 0 1.184 1.209 1.209 0 0 0 .756.72c.388.127.816.127 1.205 0 .175-.061.332-.156.46-.277.131-.129.23-.28.292-.443.073-.19.108-.391.104-.592ZM47.001 48.675l.058.132c.021-.047.04-.09.062-.132a1.23 1.23 0 0 1 .071-.13l1.393-2.201c.028-.038.052-.062.08-.069a.373.373 0 0 1 .114-.012h.412v3.58h-.488V47.1a.938.938 0 0 1 0-.124L47.3 49.208a.203.203 0 0 1-.082.081.246.246 0 0 1-.12.03h-.079a.243.243 0 0 1-.12-.03.2.2 0 0 1-.081-.081l-1.443-2.246V49.835h-.471v-3.572h.411a.373.373 0 0 1 .115.012c.034.015.06.039.076.069l1.423 2.203a.76.76 0 0 1 .071.128ZM52.244 48.497v1.34H51.7v-3.574h1.216c.23-.004.458.023.679.078.176.044.34.12.48.223a.922.922 0 0 1 .272.35c.065.146.096.302.093.458a.993.993 0 0 1-.395.815c-.14.107-.305.188-.483.236a2.3 2.3 0 0 1-.657.083l-.66-.01Zm0-.384h.66c.143.002.286-.017.423-.054a.924.924 0 0 0 .305-.154.686.686 0 0 0 .25-.538.605.605 0 0 0-.054-.291.69.69 0 0 0-.19-.244 1.172 1.172 0 0 0-.734-.192h-.66v1.473ZM59.573 49.842h-.43a.205.205 0 0 1-.12-.033.222.222 0 0 1-.072-.083l-.37-.864h-1.863l-.384.864a.205.205 0 0 1-.19.116h-.432l1.636-3.58h.567l1.658 3.58Zm-2.7-1.329h1.538l-.648-1.457c-.05-.11-.09-.222-.123-.336l-.063.187c-.019.057-.04.11-.06.152l-.643 1.454ZM61.929 46.28c.032.015.06.037.081.063l2.386 2.699v-2.779h.488v3.58h-.272a.265.265 0 0 1-.112-.022.299.299 0 0 1-.088-.066l-2.382-2.696a.974.974 0 0 1 0 .123v2.66h-.488v-3.58h.289c.033 0 .067.006.098.017ZM68.903 48.419v1.421h-.545V48.42l-1.508-2.156h.488a.197.197 0 0 1 .117.03c.03.024.055.051.074.081l.943 1.391c.038.06.071.114.098.166.028.052.05.102.069.151l.07-.154c.027-.056.058-.11.093-.163l.93-1.4a.376.376 0 0 1 .07-.076.182.182 0 0 1 .118-.035h.493l-1.51 2.165ZM46.731 40.256c.237.026.477.047.72.066 3.679-1.43 6.791-3.77 8.948-6.728 2.156-2.958 3.261-6.403 3.177-9.904l-4.054-3.522c.824 3.727.438 7.58-1.114 11.128-1.553 3.548-4.21 6.65-7.677 8.96Z"/>
            <path d="m45.284 40.092.109.02c3.704-2.303 6.527-5.517 8.106-9.228 1.579-3.711 1.84-7.749.75-11.59l-5.775-5.017c2.335 4.124 3.276 8.74 2.71 13.31-.564 4.57-2.61 8.906-5.9 12.505ZM64.868 27.826c-.981 3.847-3.364 7.316-6.794 9.893a21.629 21.629 0 0 1-3.229 2.013c2.794-.713 5.361-1.974 7.505-3.686s3.807-3.829 4.86-6.187l-2.342-2.033Z"/>
            <path d="m63.949 27.26-3.334-2.897c-.064 3.303-1.145 6.531-3.13 9.348-1.986 2.818-4.804 5.122-8.16 6.673h.016c.748 0 1.495-.04 2.238-.116 3.137-1.113 5.909-2.883 8.067-5.153 2.159-2.27 3.637-4.968 4.303-7.855ZM45.766 12.16 41.788 8.7c-3.556 1.194-6.614 3.293-8.775 6.022-2.16 2.73-3.322 5.961-3.333 9.274.013 3.66 1.431 7.212 4.03 10.093 2.597 2.88 6.227 4.927 10.314 5.814 3.648-3.862 5.785-8.634 6.098-13.623.313-4.99-1.213-9.935-4.356-14.12ZM73.14 26.727c-.014-4.342-2.006-8.503-5.54-11.574-3.534-3.07-8.324-4.801-13.322-4.814a21.18 21.18 0 0 0-6.753 1.092L71.88 32.593a14.352 14.352 0 0 0 1.26-5.866Z"/>
        </symbol>
        <symbol id="icon-client-4" viewBox="0 0 106 60" xmlns="http://www.w3.org/2000/svg">
            <path d="M24.146 21.103h-.003c-2.398 0-4.342 1.727-4.342 3.858v.003c0 2.131 1.944 3.859 4.342 3.859h.003c2.398 0 4.342-1.728 4.342-3.859v-.002c0-2.132-1.944-3.86-4.342-3.86ZM56.195 19.87c-.007-2.96-1.333-5.798-3.688-7.891C50.153 9.886 46.96 8.707 43.63 8.7c-3.332.005-6.526 1.184-8.882 3.277-2.356 2.094-3.682 4.931-3.69 7.892v16.323s25.134-2.488 25.137-16.32v-.003ZM11 41.55c.006 2.06.93 4.033 2.568 5.49 1.638 1.456 3.859 2.277 6.176 2.283 2.317-.006 4.537-.827 6.176-2.283 1.638-1.456 2.562-3.429 2.568-5.488V30.194S11 31.927 11 41.55Zm8.744 2.034c-.453 0-.895-.119-1.272-.343a2.107 2.107 0 0 1-.843-.913 1.825 1.825 0 0 1-.13-1.175c.088-.395.306-.758.626-1.042.32-.285.728-.479 1.172-.557a2.558 2.558 0 0 1 1.323.115c.419.154.776.415 1.028.75s.386.728.386 1.13c.001.268-.057.534-.172.782a2.036 2.036 0 0 1-.496.662c-.212.19-.465.34-.744.443a2.539 2.539 0 0 1-.878.156v-.008ZM37.418 42.464H35.73v1.743h-.879V39.94h2.778v.712H35.73v1.102h1.688v.709Zm4.224-.293c0 .42-.074.788-.222 1.104-.149.317-.362.56-.64.733a1.755 1.755 0 0 1-.948.258c-.354 0-.67-.085-.947-.255a1.695 1.695 0 0 1-.644-.727 2.511 2.511 0 0 1-.231-1.09v-.21c0-.42.075-.79.225-1.108.152-.32.366-.566.642-.735.277-.172.593-.258.949-.258.355 0 .67.086.946.258.278.17.491.415.642.735.152.318.228.686.228 1.104v.19Zm-.89-.194c0-.447-.08-.787-.24-1.02a.783.783 0 0 0-.686-.348.782.782 0 0 0-.683.346c-.16.229-.241.564-.243 1.008v.208c0 .435.08.773.24 1.013.16.24.39.36.692.36a.775.775 0 0 0 .68-.345c.158-.232.238-.57.24-1.014v-.208Zm3.74 1.11a.447.447 0 0 0-.175-.38c-.117-.09-.328-.184-.633-.281a4.575 4.575 0 0 1-.723-.293c-.485-.262-.727-.615-.727-1.058 0-.23.064-.436.193-.615.131-.182.318-.323.56-.425.244-.101.518-.152.82-.152.305 0 .576.055.815.167.238.11.423.264.553.466.133.2.2.43.2.685h-.88c0-.195-.06-.347-.184-.454-.123-.11-.296-.164-.518-.164-.215 0-.382.046-.501.138a.426.426 0 0 0-.179.357c0 .139.07.255.208.349.14.093.347.181.618.263.5.15.864.337 1.093.56.228.222.343.5.343.832 0 .369-.14.66-.42.87-.279.209-.654.314-1.127.314-.328 0-.627-.06-.897-.18a1.438 1.438 0 0 1-.618-.494 1.27 1.27 0 0 1-.21-.727h.881c0 .47.281.706.844.706.209 0 .372-.042.49-.126a.418.418 0 0 0 .175-.357Zm4.691-2.434h-1.306v3.554h-.88v-3.554H45.71v-.712h3.474v.712Zm3.07 1.705h-1.687v1.143h1.98v.706h-2.859V39.94h2.854v.712h-1.975v1.017h1.688v.688Zm2.388.287h-.7v1.562h-.879V39.94h1.585c.504 0 .893.113 1.166.337.274.225.41.542.41.952 0 .291-.063.535-.19.73a1.282 1.282 0 0 1-.571.463l.922 1.743v.04h-.943l-.8-1.56Zm-.7-.712h.71c.22 0 .39-.055.512-.166a.607.607 0 0 0 .181-.466c0-.202-.057-.36-.172-.475-.114-.115-.288-.173-.525-.173h-.706v1.28Zm5.326.771v1.503h-.879V39.94h1.664c.32 0 .602.059.844.176.244.117.432.284.563.501.13.215.196.46.196.735 0 .418-.144.748-.43.99-.286.24-.681.361-1.187.361h-.77Zm0-.712h.785c.233 0 .41-.055.53-.164.124-.11.185-.266.185-.469a.704.704 0 0 0-.184-.507c-.123-.128-.293-.195-.51-.199h-.806v1.34Zm5.56.366H63.14v1.143h1.98v.706h-2.859V39.94h2.854v.712H63.14v1.017h1.688v.688Zm4.079-1.705h-1.307v3.554h-.879v-3.554h-1.289v-.712h3.475v.712Zm3.07 1.705H70.29v1.143h1.98v.706h-2.86V39.94h2.854v.712H70.29v1.017h1.687v.688Zm2.388.287h-.7v1.562h-.88V39.94h1.586c.504 0 .892.113 1.166.337.273.225.41.542.41.952 0 .291-.064.535-.19.73a1.283 1.283 0 0 1-.572.463l.923 1.743v.04h-.943l-.8-1.56Zm-.7-.712h.709c.22 0 .391-.055.512-.166a.607.607 0 0 0 .182-.466c0-.202-.057-.36-.173-.475-.113-.115-.288-.173-.524-.173h-.706v1.28Zm5.165 1.155a.447.447 0 0 0-.176-.381c-.117-.09-.328-.184-.633-.281a4.57 4.57 0 0 1-.723-.293c-.485-.262-.727-.615-.727-1.058 0-.23.065-.436.193-.615.131-.182.318-.323.56-.425.244-.101.518-.152.82-.152.305 0 .576.055.815.167.238.11.423.264.553.466.133.2.2.43.2.685h-.88c0-.195-.06-.347-.184-.454-.123-.11-.296-.164-.518-.164-.215 0-.382.046-.501.138a.426.426 0 0 0-.18.357c0 .139.07.255.209.349.14.093.347.181.618.263.5.15.864.337 1.093.56.228.222.343.5.343.832 0 .369-.14.66-.42.87-.279.209-.655.314-1.127.314-.328 0-.627-.06-.897-.18a1.438 1.438 0 0 1-.618-.494 1.27 1.27 0 0 1-.21-.727h.881c0 .47.281.706.844.706.209 0 .372-.042.489-.126a.418.418 0 0 0 .176-.357Z"/>
        </symbol>
        <symbol id="icon-client-5" viewBox="0 0 106 60" xmlns="http://www.w3.org/2000/svg">
            <path d="M26.757 44.735c.244.276.373.622.367.977a1.43 1.43 0 0 1-.131.676 1.558 1.558 0 0 1-.438.558 2.627 2.627 0 0 1-1.651.45H22v-6.19h2.844a2.593 2.593 0 0 1 1.576.41c.184.142.33.32.425.52.096.202.139.42.127.64.016.34-.1.677-.33.946-.221.246-.526.416-.866.484.385.064.733.252.98.53Zm-3.406-.934h1.216c.276.018.55-.055.773-.206a.738.738 0 0 0 .207-.275.68.68 0 0 0 .054-.33.702.702 0 0 0-.055-.329.759.759 0 0 0-.203-.276 1.255 1.255 0 0 0-.796-.209H23.35v1.625Zm2.108 2.374a.777.777 0 0 0 .224-.284.712.712 0 0 0 .063-.345.722.722 0 0 0-.066-.35.788.788 0 0 0-.228-.285 1.338 1.338 0 0 0-.826-.224h-1.275v1.703h1.292c.29.015.578-.06.816-.215ZM32.57 47.397l-1.581-2.42h-.595v2.42h-1.361v-6.191h2.577a2.699 2.699 0 0 1 1.793.526c.36.336.578.779.613 1.248a1.86 1.86 0 0 1-.421 1.314 2.148 2.148 0 0 1-1.229.629l1.685 2.474h-1.48Zm-2.176-3.264h1.113c.773 0 1.16-.312 1.16-.937a.852.852 0 0 0-.063-.375.917.917 0 0 0-.221-.321 1.282 1.282 0 0 0-.876-.251h-1.126l.013 1.884ZM40.01 46.15h-2.712l-.479 1.247h-1.427l2.49-6.122h1.544l2.48 6.122H40.48l-.469-1.246Zm-.363-.937-.991-2.613-.991 2.613h1.982ZM49.322 47.397h-1.35l-3.03-4.21v4.21h-1.348v-6.192h1.348l3.03 4.235v-4.235h1.35v6.192ZM57.033 45.915c-.28.467-.705.848-1.223 1.092a4.288 4.288 0 0 1-1.9.39h-2.404v-6.191h2.405a4.376 4.376 0 0 1 1.9.38c.517.24.943.616 1.222 1.08.278.504.423 1.06.423 1.625 0 .564-.145 1.12-.423 1.624Zm-1.546-.148a2.16 2.16 0 0 0 .597-1.478c0-.542-.212-1.066-.597-1.477a2.488 2.488 0 0 0-1.692-.527h-.938v4.008h.938a2.49 2.49 0 0 0 1.692-.526ZM40.856 6.767s17.438 6.028 17.069 14.751v14.754s-17.426-6.03-17.063-14.754l-.006-14.751ZM73.46 32.818c3.294-2.075 7.103-3.36 11.08-3.738v-4.62c-4.582 1.618-8.47 4.55-11.08 8.358Z"/>
            <path d="M71.482 34.21c2.695-4.97 7.368-8.805 13.058-10.717V10.185s-24.835 8.587-24.31 21.009V52.2s1.107-.384 2.848-1.104c0-.671 0-1.349.08-2.03.513-5.766 3.507-11.11 8.324-14.857Z"/>
            <path d="M69.12 42.013c.13-1.457.421-2.898.868-4.301-2.998 3.235-4.815 7.25-5.192 11.479-.037.399-.057.798-.067 1.21a74.756 74.756 0 0 0 4.777-2.305c-.44-2.001-.57-4.049-.386-6.083ZM70.108 42.089a19.051 19.051 0 0 0 .307 5.508c6.785-3.718 14.41-9.462 14.115-16.403v-.605c-4.848.497-9.383 2.437-12.91 5.523a19.259 19.259 0 0 0-1.513 5.977Z"/>
        </symbol>
        <symbol id="icon-client-6" viewBox="0 0 106 60" xmlns="http://www.w3.org/2000/svg">
            <path d="M53.425 27.408a2.947 2.947 0 0 1-.605-1.988v-2.884c0-.883.2-1.555.602-2.015.4-.46 1.089-.688 2.065-.686.917 0 1.569.196 1.953.587.42.499.625 1.109.578 1.724v.678h-1.64v-.687c.005-.224-.01-.449-.048-.671a.65.65 0 0 0-.235-.399.95.95 0 0 0-.594-.155 1.005 1.005 0 0 0-.625.164.768.768 0 0 0-.272.44 3.332 3.332 0 0 0-.065.713v3.499c-.026.337.047.675.21.982a.77.77 0 0 0 .328.238.9.9 0 0 0 .424.055.893.893 0 0 0 .58-.158.704.704 0 0 0 .245-.425c.038-.232.056-.467.051-.701v-.71h1.641v.648a2.64 2.64 0 0 1-.567 1.813c-.377.428-1.02.642-1.964.642s-1.658-.229-2.062-.704ZM60.257 27.438c-.415-.45-.622-1.103-.622-1.968v-3.033c0-.857.207-1.505.622-1.945.414-.44 1.107-.659 2.079-.657.965 0 1.654.22 2.069.657.414.44.625 1.088.625 1.945v3.032c0 .857-.21 1.514-.632 1.966-.421.451-1.107.677-2.062.677-.955 0-1.661-.229-2.08-.674Zm2.843-.728c.149-.28.216-.589.197-.897v-3.714a1.65 1.65 0 0 0-.193-.88.776.776 0 0 0-.335-.241.907.907 0 0 0-.433-.052.918.918 0 0 0-.434.052.786.786 0 0 0-.337.241c-.15.275-.217.578-.197.88v3.731c-.02.309.047.617.197.898.095.094.214.17.346.222a1.158 1.158 0 0 0 .843 0c.133-.052.25-.128.346-.222v-.018ZM67.004 19.924h1.766l1.328 5.595 1.36-5.595h1.718L73.35 28h-1.271l-.136-5.613L70.632 28h-1.02l-1.358-5.634L68.128 28h-1.284l.16-8.076ZM75.33 19.924h2.752c1.585 0 2.378.764 2.378 2.293 0 1.464-.835 2.196-2.504 2.194h-.937V28H75.32l.01-8.077Zm2.351 3.451c.168.019.338.006.5-.039.16-.044.31-.117.434-.216.195-.273.281-.593.245-.912a2.525 2.525 0 0 0-.082-.733.594.594 0 0 0-.125-.222.703.703 0 0 0-.214-.162 1.759 1.759 0 0 0-.758-.13h-.659v2.414h.66ZM82.91 19.924h1.824L86.606 28h-1.584l-.37-1.862h-1.627L82.645 28h-1.607l1.871-8.076Zm1.559 5.279-.636-3.39-.635 3.39h1.27ZM88.117 19.924h1.19l2.275 4.607v-4.607h1.41V28h-1.131l-2.29-4.81V28h-1.457l.003-8.076ZM96.294 24.92l-1.892-4.985h1.594l1.155 3.203 1.083-3.203h1.56l-1.869 4.986V28h-1.63v-3.08ZM56.048 31.532v.422h-1.386v3.282h-.581v-3.282h-1.393v-.422h3.36ZM60.393 35.236h-.449a.2.2 0 0 1-.126-.035.194.194 0 0 1-.074-.085l-.401-.88H57.42l-.4.88a.243.243 0 0 1-.062.1.208.208 0 0 1-.126.035h-.448l1.699-3.704h.59l1.72 3.69Zm-2.813-1.375h1.603l-.68-1.508a2.699 2.699 0 0 1-.125-.349c-.024.07-.044.138-.064.197l-.062.155-.672 1.505ZM63.321 34.872c.107.005.213.005.32 0 .091-.008.182-.023.271-.044.083-.017.165-.04.245-.067.075-.027.15-.059.227-.091v-.833h-.679a.137.137 0 0 1-.092-.03.086.086 0 0 1-.026-.03.074.074 0 0 1-.008-.037v-.284h1.318v1.42a2.578 2.578 0 0 1-.716.301c-.14.036-.281.061-.425.077-.165.016-.33.023-.496.023a2.59 2.59 0 0 1-.856-.138 2.09 2.09 0 0 1-.68-.387 1.79 1.79 0 0 1-.438-.587 1.851 1.851 0 0 1-.156-.768 1.92 1.92 0 0 1 .153-.774c.097-.22.247-.42.438-.587.194-.167.425-.297.68-.384.29-.095.6-.142.91-.138.158 0 .316.01.472.032.138.02.274.051.404.094.12.038.233.088.34.147.104.058.203.122.296.193l-.163.229a.142.142 0 0 1-.055.05.17.17 0 0 1-.078.02.222.222 0 0 1-.105-.029 2.113 2.113 0 0 1-.167-.088 1.504 1.504 0 0 0-.227-.1 2.127 2.127 0 0 0-.313-.082 2.614 2.614 0 0 0-.431-.032 2.009 2.009 0 0 0-.656.103c-.189.065-.36.165-.5.293a1.29 1.29 0 0 0-.315.46 1.732 1.732 0 0 0 0 1.235c.074.175.19.333.34.467.139.127.308.227.495.293.216.064.445.089.673.073ZM68.736 34.814h1.855v.422H68.17v-3.704h.58l-.013 3.282ZM72.52 35.236h-.58v-3.704h.58v3.704ZM74.681 31.55a.28.28 0 0 1 .089.067l2.483 2.792a.881.881 0 0 1 0-.132V31.517h.506v3.72h-.292a.275.275 0 0 1-.126-.021.328.328 0 0 1-.091-.07l-2.48-2.79v2.88h-.486v-3.704h.302c.033 0 .066.006.095.017ZM82.036 31.532v.407h-2.058v1.223h1.668v.393h-1.668v1.264h2.058v.408H79.38v-3.695h2.656ZM21.162 8.656l25.795 6.323v22.158l-25.795-6.32V8.655Zm-1.655-1.89v25.127l29.1 7.136V13.905l-29.1-7.138Z"/>
            <path d="M35.104 50.692 6 43.55V18.427l29.104 7.139v25.126Z"/>
            <path d="m19.99 8.371 25.458 6.244-10.827 9.35L9.16 17.718 19.99 8.37Zm-.483-1.604L6 18.427l29.104 7.14 13.504-11.662-29.1-7.138ZM36.741 49.279 48.608 39.03 36.74 36.12v13.16Z"/>
        </symbol>
        <symbol id="modal-close" viewBox="0 0 11 11" xmlns="http://www.w3.org/2000/svg">
            <path d="M11 1.108l-1.108-1.108-4.392 4.392-4.392-4.392-1.108 1.108 4.392 4.392-4.392 4.392 1.108 1.108 4.392-4.392 4.392 4.392 1.108-1.108-4.392-4.392 4.392-4.392z"></path>
        </symbol>
        <symbol id="modal-name" viewBox="0 0 18 18" xmlns="http://www.w3.org/2000/svg">
            <path d="M9 9C10.6575 9 12 7.6575 12 6C12 4.3425 10.6575 3 9 3C7.3425 3 6 4.3425 6 6C6 7.6575 7.3425 9 9 9ZM9 10.5C6.9975 10.5 3 11.505 3 13.5V14.25C3 14.6625 3.3375 15 3.75 15H14.25C14.6625 15 15 14.6625 15 14.25V13.5C15 11.505 11.0025 10.5 9 10.5Z"/>
        </symbol>
        <symbol id="modal-email" viewBox="0 0 18 18" xmlns="http://www.w3.org/2000/svg">
            <path d="M15 3H3C2.175 3 1.5075 3.675 1.5075 4.5L1.5 13.5C1.5 14.325 2.175 15 3 15H15C15.825 15 16.5 14.325 16.5 13.5V4.5C16.5 3.675 15.825 3 15 3ZM14.7 6.1875L9.3975 9.5025C9.1575 9.6525 8.8425 9.6525 8.6025 9.5025L3.3 6.1875C3.1125 6.0675 3 5.865 3 5.6475C3 5.145 3.5475 4.845 3.975 5.1075L9 8.25L14.025 5.1075C14.4525 4.845 15 5.145 15 5.6475C15 5.865 14.8875 6.0675 14.7 6.1875Z"/>
        </symbol>
        <symbol id="modal-phone" viewBox="0 0 18 18" xmlns="http://www.w3.org/2000/svg">
            <path d="M13.996 11.1226L12.1579 10.9127C11.7164 10.862 11.2822 11.014 10.971 11.3252L9.63945 12.6568C7.59144 11.6147 5.91251 9.94296 4.87041 7.8877L6.20922 6.54888C6.5204 6.2377 6.67237 5.80349 6.62171 5.36205L6.41185 3.53836C6.325 2.80745 5.70988 2.25745 4.97173 2.25745H3.71976C2.902 2.25745 2.22175 2.93771 2.2724 3.75547C2.65595 9.93572 7.59868 14.8712 13.7717 15.2548C14.5894 15.3054 15.2697 14.6252 15.2697 13.8074V12.5555C15.2769 11.8245 14.7269 11.2094 13.996 11.1226Z"/>
        </symbol>
        <symbol id="checkbox-blue" viewBox="0 0 16 15" xmlns="http://www.w3.org/2000/svg">
            <path d="M3.95703 7.75166L3.88825 7.68604L3.81923 7.75141L2.93123 8.59258L2.85486 8.66492L2.93097 8.73753L6.42671 12.0724L6.49574 12.1382L6.56476 12.0724L14.069 4.91352L14.1449 4.84116L14.069 4.76881L13.1873 3.92764L13.1183 3.86183L13.0493 3.92761L6.49577 10.1735L3.95703 7.75166Z" fill="white" stroke="white" stroke-width="0.2"/>
        </symbol>
        <symbol id="checkbox-white" viewBox="0 0 16 15" xmlns="http://www.w3.org/2000/svg">
            <path d="M14.2222 1.66667V13.3333H1.77778V1.66667H14.2222ZM14.2222 0H1.77778C0.8 0 0 0.75 0 1.66667V13.3333C0 14.25 0.8 15 1.77778 15H14.2222C15.2 15 16 14.25 16 13.3333V1.66667C16 0.75 15.2 0 14.2222 0Z"/>
        </symbol>
        <symbol id="icon-send" viewBox="0 0 24 24" fill="none" xmlns="http://www.w3.org/2000/svg">
            <path d="M24 0L0 13.5L7.66994 16.3407L19.5 5.25002L10.5017 17.3896L10.509 17.3923L10.5 17.3896V24.0001L14.8013 18.982L20.2501 21.0001L24 0Z" fill="white"/>
        </symbol>
        <symbol id="mobile-cross" viewBox="0 0 40 40" fill="none" xmlns="http://www.w3.org/2000/svg">
            <path d="M8 14.6667V12H32V14.6667H8ZM8 21.3333H32V18.6667H8V21.3333ZM8 28H32V25.3333H8V28Z" fill="white"/>
        </symbol>
        <symbol id="mobile-menu" viewBox="0 0 40 40" fill="none" xmlns="http://www.w3.org/2000/svg">
            <path d="M29.6667 12.88L27.7867 11L20.3333 18.4533L12.88 11L11 12.88L18.4533 20.3333L11 27.7867L12.88 29.6667L20.3333 22.2133L27.7867 29.6667L29.6667 27.7867L22.2133 20.3333L29.6667 12.88Z" fill="#212121"/>
        </symbol>
        <symbol id="barber-phone" viewBox="0 0 24 24" fill="none" xmlns="http://www.w3.org/2000/svg">
            <path fill-rule="evenodd" clip-rule="evenodd" d="M19.9995 16.0028V18.4163C20.0013 18.8693 19.8121 19.3021 19.4783 19.6084C19.1444 19.9147 18.6969 20.066 18.2457 20.0252C15.7702 19.7562 13.3923 18.9103 11.3031 17.5555C9.35937 16.3203 7.71141 14.6724 6.47627 12.7286C5.11669 10.6299 4.2706 8.24046 4.00654 5.75383C3.96589 5.30403 4.11616 4.85785 4.42065 4.52429C4.72514 4.19073 5.1558 4.0005 5.60744 4.00008H8.02087C8.82845 3.99213 9.51679 4.5841 9.62982 5.38378C9.73168 6.15613 9.92059 6.91447 10.1929 7.64435C10.414 8.23232 10.2726 8.89515 9.83093 9.34179L8.80925 10.3635C9.95447 12.3775 11.6221 14.0451 13.6361 15.1903L14.6578 14.1686C15.1044 13.727 15.7673 13.5856 16.3552 13.8066C17.0851 14.079 17.8435 14.2679 18.6158 14.3698C19.4248 14.4839 20.0198 15.1861 19.9995 16.0028Z" stroke="#9DA4BD" stroke-linecap="round" stroke-linejoin="round"/>
        </symbol>
        <symbol id="barber-map" viewBox="0 0 24 24" fill="none" xmlns="http://www.w3.org/2000/svg">
            <path fill-rule="evenodd" clip-rule="evenodd" d="M20 10.3636C20 16.0909 12 21 12 21C12 21 4 16.0909 4 10.3636C4 6.29681 7.58172 3 12 3C16.4183 3 20 6.29681 20 10.3636V10.3636Z" stroke="#9DA4BD" stroke-linecap="round" stroke-linejoin="round"/>
            <path fill-rule="evenodd" clip-rule="evenodd" d="M12 14C13.6569 14 15 12.6569 15 11C15 9.34315 13.6569 8 12 8C10.3431 8 9 9.34315 9 11C9 12.6569 10.3431 14 12 14Z" stroke="#9DA4BD" stroke-linecap="round" stroke-linejoin="round"/>
        </symbol>
        <symbol id="barber-mail" viewBox="0 0 24 24" fill="none" xmlns="http://www.w3.org/2000/svg">
            <path fill-rule="evenodd" clip-rule="evenodd" d="M4.8 5H19.2C20.19 5 21 5.7875 21 6.75V17.25C21 18.2125 20.19 19 19.2 19H4.8C3.81 19 3 18.2125 3 17.25V6.75C3 5.7875 3.81 5 4.8 5Z" stroke="#9DA4BD" stroke-linecap="round" stroke-linejoin="round"/>
            <path d="M20 7L12 13L4 7" stroke="#9DA4BD" stroke-linecap="round" stroke-linejoin="round"/>
        </symbol>
        <symbol id="barber-group" viewBox="0 0 12 12" fill="none" xmlns="http://www.w3.org/2000/svg">
            <path d="M5.928 4.284C6.696 4.32 6.894 4.974 6.906 5.28H7.98C7.932 4.092 7.086 3.366 5.91 3.366C4.584 3.366 3.6 4.2 3.6 6.084C3.6 7.248 4.158 8.628 5.904 8.628C7.236 8.628 7.95 7.638 7.968 6.858H6.894C6.876 7.212 6.624 7.686 5.916 7.722C5.13 7.698 4.8 7.086 4.8 6.084C4.8 4.35 5.568 4.296 5.928 4.284ZM6 0C2.688 0 0 2.688 0 6C0 9.312 2.688 12 6 12C9.312 12 12 9.312 12 6C12 2.688 9.312 0 6 0ZM6 10.8C3.354 10.8 1.2 8.646 1.2 6C1.2 3.354 3.354 1.2 6 1.2C8.646 1.2 10.8 3.354 10.8 6C10.8 8.646 8.646 10.8 6 10.8Z" fill="#9DA4BD"/>
        </symbol>
        <symbol id="barber-logo" viewBox="0 0 69 56" fill="none" xmlns="http://www.w3.org/2000/svg">
            <g clip-path="url(#clip0_56_22)">
                <path d="M39.1501 16.87L37.8401 15.87C37.6353 15.7043 37.3734 15.626 37.1113 15.6522C36.8491 15.6784 36.6079 15.807 36.4401 16.01L18.3101 36.83L18.5901 37.14L23.0801 33C22.9304 32.9398 22.8066 32.8291 22.7301 32.6871C22.6537 32.5451 22.6294 32.3807 22.6615 32.2227C22.6935 32.0646 22.78 31.9227 22.9058 31.8218C23.0316 31.7208 23.1888 31.6671 23.3501 31.67C23.4955 31.67 23.6371 31.7166 23.7541 31.803C23.8711 31.8894 23.9573 32.011 24.0001 32.15L29.9201 26.66C30.0107 26.587 30.1236 26.5472 30.2401 26.5472C30.3565 26.5472 30.4694 26.587 30.5601 26.66L30.8601 26.88C30.9616 26.9528 31.0866 26.9849 31.2106 26.9701C31.3346 26.9553 31.4485 26.8946 31.5301 26.8L39.2701 18.12C39.3523 18.0339 39.4151 17.931 39.454 17.8184C39.493 17.7058 39.5073 17.5862 39.4959 17.4676C39.4845 17.349 39.4477 17.2343 39.3881 17.1312C39.3284 17.028 39.2472 16.939 39.1501 16.87Z" fill="white"/>
                <path d="M47.67 22.73C43.7025 25.553 39.2579 27.6364 34.55 28.88C29.8775 30.0683 25.0962 30.7786 20.28 31C20.377 31.7102 20.5514 32.4077 20.8 33.08C23.52 35.54 44 31.34 48 26.48C48.85 25.47 47.67 22.73 47.67 22.73ZM23.35 33C23.2155 33 23.0841 32.9601 22.9722 32.8854C22.8604 32.8107 22.7733 32.7045 22.7218 32.5802C22.6703 32.4559 22.6569 32.3192 22.6831 32.1873C22.7093 32.0554 22.7741 31.9342 22.8692 31.8391C22.9643 31.744 23.0855 31.6793 23.2174 31.653C23.3493 31.6268 23.486 31.6403 23.6103 31.6917C23.7345 31.7432 23.8407 31.8304 23.9154 31.9422C23.9901 32.054 24.03 32.1855 24.03 32.32C24.0314 32.4097 24.0147 32.4987 23.981 32.5818C23.9473 32.6649 23.8973 32.7404 23.8339 32.8038C23.7705 32.8672 23.695 32.9173 23.6118 32.951C23.5287 32.9847 23.4397 33.0013 23.35 33Z" fill="white"/>
                <path d="M4.00006 21.2899L4.16006 20.5999L6.76006 21.1899C6.97456 21.5861 7.10719 22.0214 7.15006 22.4699C7.19968 22.945 7.16926 23.425 7.06006 23.8899C6.93061 24.5352 6.63406 25.1352 6.20006 25.6299C5.78714 26.097 5.25473 26.4428 4.66006 26.6299C4.04715 26.8189 3.39526 26.8431 2.77006 26.6999C2.14348 26.5646 1.56592 26.2603 1.10006 25.8199C0.641324 25.3969 0.311921 24.8526 0.150055 24.2499C-0.0295106 23.5954 -0.0295106 22.9045 0.150055 22.2499C0.257533 21.76 0.450482 21.2929 0.720055 20.8699C0.975194 20.4853 1.3179 20.1665 1.72006 19.9399L2.08005 20.4899C1.73536 20.7016 1.43948 20.9839 1.21194 21.3183C0.984399 21.6527 0.830382 22.0316 0.760055 22.4299C0.636042 22.9473 0.646369 23.4877 0.790055 23.9999C0.924425 24.4863 1.19096 24.9259 1.56006 25.2699C1.93943 25.6367 2.41409 25.8896 2.93006 25.9999C3.43038 26.1404 3.95973 26.1404 4.46006 25.9999C4.93934 25.8417 5.36983 25.5628 5.71006 25.1899C6.0597 24.7873 6.30065 24.3019 6.41006 23.7799C6.57459 23.1468 6.53254 22.4776 6.29006 21.8699L4.00006 21.2899Z" fill="white"/>
                <path d="M9.66004 14.9999L7.33004 18.1099L8.33004 19.8999L7.87004 20.5199L4.17004 13.7699L4.60004 13.1799L12.13 14.7999L11.66 15.4199L9.66004 14.9999ZM9.00004 14.8399L5.00004 13.9399L7.00004 17.5299L9.00004 14.8399Z" fill="white"/>
                <path d="M9 8.5501L9.6 8.1001L13.41 13.2001L16.55 10.8501L16.93 11.3601L13.2 14.1501L9 8.5501Z" fill="white"/>
                <path d="M15.3 4.38008L15.97 4.08008L18.61 9.86008L22.18 8.24008L22.44 8.82008L18.2 10.7501L15.3 4.38008Z" fill="white"/>
                <path d="M28.48 6.68003L28.63 7.31003L23.81 8.44003L22.21 1.62003L26.89 0.530029L27.03 1.15003L23.03 2.08003L23.6 4.50003L27.12 3.67003L27.27 4.29003L23.74 5.11003L24.34 7.64003L28.48 6.68003Z" fill="white"/>
                <path d="M35.35 6.92997L33.68 4.72997C33.4934 4.74029 33.3065 4.74029 33.12 4.72997L31.24 4.78997L31.31 7.00997H30.57L30.34 0.00996866L33 -3.1339e-05C33.752 -0.0694894 34.5041 0.132721 35.12 0.569969C35.3795 0.778962 35.5882 1.04418 35.7302 1.3456C35.8723 1.64702 35.944 1.97678 35.94 2.30997C35.9692 2.80416 35.8395 3.29473 35.57 3.70997C35.2826 4.10853 34.8766 4.40603 34.41 4.55997L36.16 6.89997L35.35 6.92997ZM34.65 3.63997C34.8297 3.47531 34.9692 3.27154 35.0576 3.04439C35.146 2.81725 35.1811 2.57281 35.16 2.32997C35.1651 2.08584 35.1147 1.84374 35.0125 1.62198C34.9103 1.40022 34.7589 1.20461 34.57 1.04997C34.1091 0.737448 33.5548 0.592707 33 0.639969L31.1 0.709969L31.22 4.20997L33.08 4.14997C33.6471 4.17096 34.2034 3.99026 34.65 3.63997Z" fill="white"/>
                <path d="M40.64 5.07L40.28 7.46L39.55 7.35L39.92 5L37.85 0L38.63 0.12L40.4 4.38L43.4 0.85L44.1 1L40.64 5.07Z" fill="white"/>
                <path d="M50.53 4.64993L51.4001 5.77993L51.0201 6.07993L50.1501 4.91993L49.6 6.22993L49.18 6.04993L49.7401 4.73993L48.3 4.92993V4.44993L49.7201 4.28993L48.84 3.15993L49.23 2.85993L50 3.99993L50.5401 2.67993L50.9701 2.85993L50.46 4.19993L51.9001 3.99993V4.48993L50.53 4.64993Z" fill="white"/>
                <path d="M53.8699 12.7099C53.6338 12.3458 53.4865 11.9314 53.4399 11.4999L54.0299 11.2399C54.0742 11.6363 54.2038 12.0184 54.4099 12.3599C54.6333 12.7428 54.9248 13.0817 55.2699 13.3599C55.6264 13.7012 56.0812 13.9216 56.5699 13.9899C56.7465 14.0063 56.9244 13.9793 57.0883 13.9114C57.2521 13.8434 57.3968 13.7365 57.5099 13.5999C57.5929 13.5084 57.6561 13.4008 57.6957 13.2838C57.7352 13.1669 57.7503 13.043 57.7399 12.9199C57.7069 12.6762 57.6253 12.4416 57.4999 12.2299C57.312 11.923 57.1084 11.6259 56.8899 11.3399C56.6237 10.9911 56.3831 10.6235 56.1699 10.2399C56.007 9.95284 55.9177 9.6299 55.9099 9.29992C55.9092 8.92934 56.0485 8.57218 56.2999 8.29992C56.5179 8.03604 56.8054 7.83857 57.1299 7.72992C57.4925 7.62518 57.8774 7.62518 58.2399 7.72992C58.7071 7.88269 59.1389 8.12751 59.5099 8.44992C59.8178 8.70599 60.0902 9.00192 60.3199 9.32992C60.5324 9.63408 60.6913 9.97227 60.7899 10.3299L60.2199 10.6299C60.1205 10.2966 59.9722 9.97979 59.7799 9.68992C59.5884 9.43106 59.3631 9.199 59.1099 8.99992C58.7588 8.66016 58.3054 8.44575 57.8199 8.38992C57.6416 8.375 57.4623 8.40466 57.2982 8.47623C57.1341 8.5478 56.9904 8.65903 56.8799 8.79992C56.7949 8.89 56.7303 8.99741 56.6906 9.11477C56.6509 9.23214 56.637 9.35669 56.6499 9.47992C56.6733 9.73209 56.7555 9.97526 56.8899 10.1899C57.0299 10.4199 57.2299 10.7199 57.4999 11.0799C57.7676 11.4207 58.0083 11.7818 58.2199 12.1599C58.3863 12.4461 58.4791 12.7691 58.4899 13.0999C58.4906 13.4705 58.3513 13.8277 58.0999 14.0999C57.8812 14.3674 57.5893 14.5655 57.2599 14.6699C56.898 14.7792 56.5119 14.7792 56.1499 14.6699C55.6796 14.5176 55.2444 14.2728 54.8699 13.9499C54.4663 13.5986 54.1278 13.1788 53.8699 12.7099Z" fill="white"/>
                <path d="M63.93 14.17L62.52 12.17L63.04 11.8L66.29 16.44L65.77 16.81L64.36 14.81L59.14 18.46L58.72 17.85L63.93 14.17Z" fill="white"/>
                <path d="M61.69 22.39C61.8685 21.7856 62.2153 21.2445 62.69 20.83C63.1543 20.4141 63.7199 20.1279 64.33 20C64.9519 19.8572 65.6004 19.8814 66.21 20.07C66.7983 20.2645 67.3257 20.6092 67.74 21.07C68.1708 21.5656 68.4639 22.1656 68.59 22.81C68.7556 23.4426 68.7556 24.1073 68.59 24.74C68.4065 25.3421 68.0605 25.8819 67.59 26.3C67.1128 26.727 66.5333 27.0233 65.9077 27.16C65.2821 27.2967 64.6318 27.2691 64.02 27.08C63.4271 26.8949 62.8974 26.5487 62.49 26.08C62.0611 25.587 61.7682 24.9907 61.64 24.35C61.4872 23.7033 61.5044 23.028 61.69 22.39ZM63 25.57C63.3339 25.9502 63.7665 26.2306 64.25 26.38C64.7483 26.5245 65.2749 26.5417 65.7816 26.4298C66.2883 26.318 66.7588 26.0808 67.15 25.74C67.5191 25.4004 67.7916 24.9691 67.94 24.49C68.0794 23.9841 68.0931 23.4517 67.9798 22.9393C67.8665 22.4269 67.6297 21.95 67.29 21.55C66.9414 21.1679 66.4955 20.8879 66 20.74C65.4954 20.606 64.9646 20.606 64.46 20.74C63.9508 20.8377 63.4795 21.0768 63.1 21.43C62.7275 21.7708 62.4545 22.2062 62.31 22.69C62.1742 23.1977 62.1742 23.7322 62.31 24.24C62.4195 24.7361 62.6574 25.1947 63 25.57Z" fill="white"/>
                <path d="M60.93 33.9999L63.52 32.9999C63.52 32.8199 63.58 32.6399 63.63 32.4499L64.12 30.6399L62 30.0899L62.19 29.3799L68.95 31.1899L68.27 33.7199C68.1168 34.4581 67.7055 35.1176 67.11 35.5799C66.8363 35.7699 66.5224 35.8941 66.1928 35.9427C65.8632 35.9912 65.5268 35.9629 65.21 35.8599C64.7274 35.7552 64.295 35.4891 63.9841 35.1055C63.6732 34.7219 63.5024 34.2437 63.5 33.7499L60.74 34.7499L60.93 33.9999ZM64.28 34.2799C64.3971 34.4924 64.556 34.679 64.7472 34.8286C64.9383 34.9781 65.1577 35.0875 65.3921 35.1501C65.6266 35.2126 65.8713 35.2272 66.1115 35.1928C66.3517 35.1584 66.5825 35.0758 66.79 34.9499C67.2314 34.5954 67.5326 34.0957 67.64 33.5399L68.12 31.7399L64.73 30.8299L64.25 32.6299C64.0655 33.1663 64.0761 33.7506 64.28 34.2799Z" fill="white"/>
                <path d="M57.34 40.4401L56.83 40.0501L59.83 36.1001L65.41 40.3301L62.51 44.1601L62 43.7701L64.45 40.5401L62.45 39.0301L60.26 41.9201L59.76 41.5401L62 38.6501L59.93 37.0801L57.34 40.4401Z" fill="white"/>
                <path d="M54.9999 48.4099L53.5699 48.4899V48.0099L54.9999 47.9999L54.2299 46.8099L54.6199 46.5599L55.3799 47.7599L55.9999 46.4199L56.4299 46.6499L55.7499 47.9099L57.1799 47.8299V48.3199H55.7299L56.4999 49.5099L56.1099 49.7599L55.3499 48.5599L54.6899 49.8599L54.2699 49.6199L54.9999 48.4099Z" fill="white"/>
                <path d="M42 47.6099L43.21 48.2799C43.4128 47.8902 43.696 47.5479 44.0407 47.2756C44.3854 47.0033 44.7839 46.8071 45.21 46.6999C45.6074 46.576 46.0254 46.5318 46.44 46.5699C46.7997 46.5975 47.1452 46.7219 47.44 46.9299C47.7064 47.1308 47.9025 47.4108 48 47.7299C48.1205 48.1247 48.0993 48.5491 47.94 48.9299C47.6891 49.4473 47.3508 49.9175 46.94 50.3199C47.2697 50.4971 47.5755 50.7155 47.85 50.9699C48.0386 51.1648 48.179 51.4011 48.26 51.6599C48.3112 51.8617 48.3144 52.0726 48.2693 52.2759C48.2241 52.4791 48.1319 52.6688 48 52.8299C47.733 53.2146 47.3347 53.4884 46.88 53.5999C46.4807 53.7522 46.0393 53.7522 45.64 53.5999C45.4624 53.5235 45.305 53.407 45.1801 53.2596C45.0551 53.1121 44.9661 52.9376 44.92 52.7499C44.8151 52.4198 44.8402 52.0622 44.99 51.7499C45.2195 51.2953 45.52 50.8801 45.88 50.5199L43.47 49.1799C43.378 49.6508 43.3578 50.1329 43.41 50.6099H42.8C42.7589 50.0225 42.8267 49.4326 43 48.8699L41.74 48.1699L42 47.6099ZM43.74 48.6099L46.39 50.0799C46.7373 49.7483 47.0248 49.3592 47.24 48.9299C47.3499 48.64 47.3499 48.3199 47.24 48.0299C47.1946 47.8567 47.1069 47.6974 46.9847 47.5665C46.8625 47.4356 46.7097 47.3371 46.54 47.2799C46.1248 47.1397 45.6751 47.1397 45.26 47.2799C44.9207 47.3694 44.6053 47.5322 44.3357 47.7568C44.0662 47.9814 43.8492 48.2624 43.7 48.5799L43.74 48.6099ZM47.5 52.6099C47.5653 52.4994 47.6063 52.3762 47.6201 52.2486C47.6339 52.1209 47.6202 51.9918 47.58 51.8699C47.5187 51.6724 47.4087 51.4936 47.26 51.3499C47.0054 51.1352 46.7269 50.9506 46.43 50.7999C46.1268 51.0997 45.8615 51.4356 45.64 51.7999C45.5191 52.0271 45.4904 52.2921 45.56 52.5399C45.5917 52.6543 45.6473 52.7607 45.7232 52.8521C45.799 52.9434 45.8934 53.0177 46 53.0699C46.2546 53.1659 46.5354 53.1659 46.79 53.0699C47.0619 52.9974 47.2992 52.8309 47.46 52.5999L47.5 52.6099Z" fill="white"/>
                <path d="M29.8101 55.3201L29.9501 48.3201H30.6601L30.5501 53.9201L33.3901 49.2601H33.7401L36.4001 54.0001L36.5001 48.4301H37.2101L37.0801 55.4301H36.4701L33.5301 50.2001L30.4201 55.3301L29.8101 55.3201Z" fill="white"/>
                <path d="M26.33 48.0001C26.7873 48.4359 27.1145 48.9902 27.2752 49.6012C27.4359 50.2121 27.4237 50.8557 27.24 51.4601C27.0757 52.079 26.7475 52.6421 26.29 53.0901C25.8454 53.5271 25.2879 53.8318 24.68 53.9701C24.0387 54.1148 23.3711 54.0941 22.74 53.9101C22.111 53.7565 21.5323 53.443 21.06 53.0001C20.6095 52.5698 20.2875 52.0228 20.13 51.4201C19.9762 50.7971 19.9876 50.1447 20.1629 49.5274C20.3383 48.9101 20.6716 48.3492 21.13 47.9001C21.5667 47.4642 22.1123 47.1534 22.71 47.0001C23.348 46.8558 24.0122 46.8765 24.64 47.0601C25.2755 47.2212 25.858 47.5452 26.33 48.0001ZM22.92 47.6501C22.4308 47.764 21.9837 48.0135 21.63 48.3701C21.2616 48.737 20.9991 49.1965 20.87 49.7001C20.7305 50.2006 20.7305 50.7296 20.87 51.2301C20.9879 51.717 21.241 52.1607 21.6 52.5101C21.9765 52.8783 22.4414 53.1435 22.95 53.2801C23.4585 53.4096 23.9914 53.4096 24.5 53.2801C24.9895 53.1597 25.4382 52.9112 25.8 52.5601C26.1664 52.1917 26.4286 51.7328 26.56 51.2301C26.6998 50.7263 26.6998 50.1939 26.56 49.6901C26.432 49.205 26.1765 48.7631 25.82 48.4101C25.4415 48.0414 24.9723 47.7792 24.46 47.6501C23.9561 47.5108 23.4239 47.5108 22.92 47.6501Z" fill="white"/>
                <path d="M15.35 43L15.62 45.75C15.7916 45.8233 15.9585 45.9068 16.12 46L17.75 46.94L18.85 45L19.5 45.37L16 51.4L13.72 50.09C13.0461 49.7515 12.5145 49.1844 12.22 48.49C12.1113 48.1772 12.0747 47.8439 12.1127 47.5149C12.1508 47.1859 12.2627 46.8698 12.44 46.59C12.6725 46.1518 13.041 45.8008 13.49 45.59C13.9461 45.4011 14.4506 45.3626 14.93 45.48L14.64 42.54L15.35 43ZM14.21 46.16C13.9752 46.219 13.7546 46.3247 13.5615 46.4708C13.3685 46.617 13.2069 46.8006 13.0864 47.0107C12.966 47.2207 12.8892 47.4529 12.8606 47.6934C12.832 47.9338 12.8522 48.1776 12.92 48.41C13.1544 48.9276 13.5608 49.3481 14.07 49.6L15.68 50.53L17.43 47.53L15.82 46.6C15.3573 46.2533 14.7875 46.0799 14.21 46.11V46.16Z" fill="white"/>
                <path d="M9.43 38.3101L9.88 37.8601L13.33 41.4101L8.33 46.2901L5 42.8501L5.46 42.4001L8.29 45.3101L10 43.5801L7.52 41.0001L8 40.5401L10.53 43.1401L12.39 41.3301L9.43 38.3101Z" fill="white"/>
                <path d="M1.99999 34.38L2.23999 33L2.70999 33.07L2.43999 34.49L3.76999 34L3.92999 34.44L2.57999 34.9L3.68999 35.84L3.36999 36.2L2.29999 35.2L2.04999 36.62L1.56999 36.53L1.84999 35.11L0.509985 35.59L0.359985 35.2L1.69999 34.73L0.589985 33.8L0.919985 33.44L1.99999 34.38Z" fill="white"/>
            </g>
            <defs>
                <clipPath id="clip0_56_22">
                    <rect width="68.93" height="55.46" fill="white"/>
                </clipPath>
            </defs>
        </symbol>
        <symbol id="barber-logo-black" viewBox="0 0 66 56" fill="none" xmlns="http://www.w3.org/2000/svg">
            <g clip-path="url(#clip0_53_6)">
                <path d="M37.467 16.87L36.2271 15.87C36.0333 15.7043 35.7854 15.626 35.5373 15.6522C35.2892 15.6784 35.0609 15.807 34.902 16.01L17.7419 36.83L18.007 37.14L22.2568 33C22.1151 32.9398 21.9979 32.8291 21.9256 32.6871C21.8532 32.5451 21.8302 32.3807 21.8605 32.2227C21.8909 32.0646 21.9727 31.9227 22.0918 31.8218C22.2109 31.7208 22.3597 31.6671 22.5123 31.67C22.65 31.67 22.784 31.7166 22.8947 31.803C23.0055 31.8894 23.0871 32.011 23.1275 32.15L28.7308 26.66C28.8166 26.587 28.9235 26.5472 29.0337 26.5472C29.1439 26.5472 29.2508 26.587 29.3366 26.66L29.6205 26.88C29.7166 26.9528 29.835 26.9849 29.9523 26.9701C30.0697 26.9553 30.1775 26.8946 30.2547 26.8L37.5806 18.12C37.6585 18.0339 37.7179 17.931 37.7548 17.8184C37.7917 17.7058 37.8052 17.5862 37.7944 17.4676C37.7836 17.349 37.7488 17.2343 37.6923 17.1312C37.6358 17.028 37.559 16.939 37.467 16.87Z" fill="#303030"/>
                <path d="M45.5313 22.73C41.776 25.553 37.5691 27.6364 33.1131 28.88C28.6906 30.0683 24.1651 30.7786 19.6066 31C19.6984 31.7102 19.8634 32.4077 20.0987 33.08C22.6732 35.54 42.0576 31.34 45.8436 26.48C46.6481 25.47 45.5313 22.73 45.5313 22.73ZM22.5123 33C22.385 33 22.2606 32.9601 22.1548 32.8854C22.0489 32.8107 21.9664 32.7045 21.9177 32.5802C21.869 32.456 21.8562 32.3192 21.8811 32.1873C21.9059 32.0554 21.9672 31.9342 22.0572 31.8391C22.1472 31.744 22.2619 31.6793 22.3868 31.653C22.5116 31.6268 22.641 31.6403 22.7586 31.6917C22.8762 31.7432 22.9768 31.8304 23.0475 31.9422C23.1182 32.054 23.1559 32.1855 23.1559 32.32C23.1572 32.4097 23.1414 32.4987 23.1096 32.5818C23.0777 32.6649 23.0303 32.7404 22.9703 32.8038C22.9103 32.8672 22.8388 32.9173 22.7601 32.951C22.6815 32.9847 22.5972 33.0013 22.5123 33Z" fill="#303030"/>
                <path d="M4.19832 21.2899L4.34976 20.5999L6.81067 21.1899C7.01369 21.5861 7.13923 22.0214 7.1798 22.4699C7.22678 22.945 7.19798 23.425 7.09462 23.8899C6.97209 24.5352 6.69141 25.1352 6.28063 25.6299C5.8898 26.097 5.38587 26.4428 4.82301 26.6299C4.24289 26.8189 3.62588 26.8431 3.03412 26.6999C2.44106 26.5646 1.89441 26.2603 1.45347 25.8199C1.01928 25.3969 0.707494 24.8526 0.554288 24.2499C0.384329 23.5954 0.384329 22.9045 0.554288 22.2499C0.656016 21.76 0.838643 21.2929 1.09379 20.8699C1.33528 20.4853 1.65965 20.1665 2.0403 19.9399L2.38104 20.4899C2.05478 20.7016 1.77473 20.9839 1.55936 21.3183C1.344 21.6527 1.19822 22.0316 1.13165 22.4299C1.01428 22.9473 1.02405 23.4877 1.16005 23.9999C1.28723 24.4863 1.5395 24.9259 1.88886 25.2699C2.24794 25.6367 2.6972 25.8896 3.18556 25.9999C3.65912 26.1404 4.16015 26.1404 4.63371 25.9999C5.08736 25.8417 5.49481 25.5628 5.81684 25.1899C6.14778 24.7873 6.37584 24.3019 6.47939 23.7799C6.63512 23.1468 6.59533 22.4776 6.36581 21.8699L4.19832 21.2899Z" fill="#303030"/>
                <path d="M9.55469 14.9999L7.34934 18.1099L8.29585 19.8999L7.86046 20.5199L4.3584 13.7699L4.76539 13.1799L11.8926 14.7999L11.4477 15.4199L9.55469 14.9999ZM8.93 14.8399L5.14399 13.9399L7.037 17.5299L8.93 14.8399Z" fill="#303030"/>
                <path d="M8.92999 8.5501L9.49789 8.1001L13.1041 13.2001L16.0761 10.8501L16.4358 11.3601L12.9053 14.1501L8.92999 8.5501Z" fill="#303030"/>
                <path d="M14.893 4.38008L15.5272 4.08008L18.0259 9.86008L21.4049 8.24008L21.651 8.82008L17.6379 10.7501L14.893 4.38008Z" fill="#303030"/>
                <path d="M27.3679 6.68003L27.5098 7.31003L22.9477 8.44003L21.4333 1.62003L25.8629 0.530029L25.9954 1.15003L22.2094 2.08003L22.7489 4.50003L26.0806 3.67003L26.2226 4.29003L22.8814 5.11003L23.4493 7.64003L27.3679 6.68003Z" fill="#303030"/>
                <path d="M33.8703 6.92997L32.2897 4.72997C32.1131 4.74029 31.9362 4.74029 31.7596 4.72997L29.9802 4.78997L30.0465 7.00997H29.3461L29.1284 0.00996866L31.6461 -3.1339e-05C32.3579 -0.0694894 33.0697 0.132721 33.6526 0.569969C33.8983 0.778962 34.0958 1.04418 34.2302 1.3456C34.3647 1.64702 34.4326 1.97678 34.4288 2.30997C34.4564 2.80416 34.3337 3.29473 34.0786 3.70997C33.8066 4.10853 33.4223 4.40603 32.9806 4.55997L34.637 6.89997L33.8703 6.92997ZM33.2078 3.63997C33.3779 3.47531 33.5099 3.27154 33.5936 3.04439C33.6773 2.81725 33.7105 2.57281 33.6905 2.32997C33.6954 2.08584 33.6476 1.84374 33.5509 1.62198C33.4541 1.40022 33.3109 1.20461 33.1321 1.04997C32.6958 0.737448 32.1712 0.592707 31.6461 0.639969L29.8477 0.709969L29.9613 4.20997L31.7218 4.14997C32.2586 4.17096 32.7851 3.99026 33.2078 3.63997Z" fill="#303030"/>
                <path d="M38.8773 5.07L38.5366 7.46L37.8456 7.35L38.1958 5L36.2366 0L36.9748 0.12L38.6502 4.38L41.4897 0.85L42.1522 1L38.8773 5.07Z" fill="#303030"/>
                <path d="M48.2383 4.64993L49.0617 5.77993L48.7021 6.07993L47.8786 4.91993L47.358 6.22993L46.9605 6.04993L47.4905 4.73993L46.1276 4.92993V4.44993L47.4716 4.28993L46.6387 3.15993L47.0078 2.85993L47.7366 3.99993L48.2477 2.67993L48.6547 2.85993L48.172 4.19993L49.535 3.99993V4.48993L48.2383 4.64993Z" fill="#303030"/>
                <path d="M51.3996 12.7099C51.176 12.3458 51.0366 11.9314 50.9926 11.4999L51.551 11.2399C51.5929 11.6363 51.7156 12.0184 51.9107 12.3599C52.1221 12.7428 52.398 13.0817 52.7247 13.3599C53.062 13.7012 53.4925 13.9216 53.9551 13.9899C54.1222 14.0063 54.2906 13.9793 54.4457 13.9114C54.6007 13.8434 54.7377 13.7365 54.8448 13.5999C54.9233 13.5084 54.9832 13.4008 55.0206 13.2838C55.0581 13.1669 55.0723 13.043 55.0625 12.9199C55.0312 12.6762 54.954 12.4416 54.8354 12.2299C54.6575 11.923 54.4648 11.6259 54.258 11.3399C54.006 10.9911 53.7782 10.6235 53.5765 10.2399C53.4223 9.95284 53.3378 9.6299 53.3304 9.29992C53.3298 8.92934 53.4616 8.57218 53.6996 8.29992C53.9058 8.03604 54.178 7.83857 54.4851 7.72992C54.8283 7.62518 55.1926 7.62518 55.5358 7.72992C55.9779 7.88269 56.3867 8.12751 56.7378 8.44992C57.0292 8.70599 57.287 9.00192 57.5045 9.32992C57.7056 9.63408 57.856 9.97227 57.9493 10.3299L57.4098 10.6299C57.3157 10.2966 57.1754 9.97979 56.9934 9.68992C56.8121 9.43106 56.5988 9.199 56.3592 8.99992C56.0269 8.66016 55.5977 8.44575 55.1382 8.38992C54.9694 8.375 54.7997 8.40466 54.6444 8.47623C54.4891 8.5478 54.353 8.65903 54.2485 8.79992C54.168 8.89 54.1069 8.99741 54.0693 9.11477C54.0317 9.23214 54.0186 9.35669 54.0308 9.47992C54.053 9.73209 54.1308 9.97526 54.258 10.1899C54.3905 10.4199 54.5798 10.7199 54.8354 11.0799C55.0887 11.4207 55.3165 11.7818 55.5168 12.1599C55.6743 12.4461 55.7622 12.7691 55.7724 13.0999C55.773 13.4705 55.6412 13.8277 55.4033 14.0999C55.1962 14.3674 54.92 14.5655 54.6082 14.6699C54.2656 14.7792 53.9001 14.7792 53.5576 14.6699C53.1124 14.5176 52.7004 14.2728 52.3461 13.9499C51.964 13.5986 51.6436 13.1788 51.3996 12.7099Z" fill="#303030"/>
                <path d="M60.9214 14.17L59.5868 12.17L60.079 11.8L63.1551 16.44L62.6629 16.81L61.3284 14.81L56.3876 18.46L55.9901 17.85L60.9214 14.17Z" fill="#303030"/>
                <path d="M58.8012 22.39C58.9702 21.7856 59.2985 21.2445 59.7477 20.83C60.1872 20.4141 60.7226 20.1279 61.3 20C61.8886 19.8572 62.5025 19.8814 63.0794 20.07C63.6363 20.2645 64.1355 20.6092 64.5276 21.07C64.9353 21.5656 65.2127 22.1656 65.3321 22.81C65.4889 23.4426 65.4889 24.1073 65.3321 24.74C65.1585 25.3421 64.831 25.8819 64.3856 26.3C63.934 26.727 63.3854 27.0233 62.7933 27.16C62.2012 27.2967 61.5856 27.2691 61.0066 27.08C60.4455 26.8949 59.9441 26.5487 59.5584 26.08C59.1525 25.587 58.8752 24.9907 58.7539 24.35C58.6093 23.7033 58.6256 23.028 58.8012 22.39ZM60.0411 25.57C60.3572 25.9502 60.7667 26.2306 61.2243 26.38C61.6959 26.5245 62.1944 26.5417 62.674 26.4298C63.1535 26.318 63.5989 26.0808 63.9691 25.74C64.3185 25.4004 64.5765 24.9691 64.7169 24.49C64.8488 23.9841 64.8618 23.4517 64.7546 22.9393C64.6473 22.4269 64.4232 21.95 64.1016 21.55C63.7717 21.1679 63.3497 20.8879 62.8807 20.74C62.4031 20.606 61.9006 20.606 61.423 20.74C60.9411 20.8377 60.495 21.0768 60.1358 21.43C59.7832 21.7708 59.5248 22.2062 59.3881 22.69C59.2596 23.1977 59.2596 23.7322 59.3881 24.24C59.4917 24.7361 59.7169 25.1947 60.0411 25.57Z" fill="#303030"/>
                <path d="M58.0819 33.9999L60.5333 32.9999C60.5333 32.8199 60.5901 32.6399 60.6374 32.4499L61.1012 30.6399L59.0946 30.0899L59.2745 29.3799L65.6728 31.1899L65.0292 33.7199C64.8842 34.4581 64.4949 35.1176 63.9313 35.5799C63.6722 35.7699 63.3751 35.8941 63.0632 35.9427C62.7512 35.9912 62.4328 35.9629 62.1329 35.8599C61.6762 35.7552 61.2668 35.4891 60.9726 35.1055C60.6783 34.7218 60.5167 34.2437 60.5144 33.7499L57.902 34.7499L58.0819 33.9999ZM61.2527 34.2799C61.3635 34.4924 61.5139 34.679 61.6948 34.8286C61.8757 34.9781 62.0834 35.0875 62.3053 35.1501C62.5272 35.2126 62.7588 35.2272 62.9862 35.1928C63.2136 35.1584 63.432 35.0758 63.6284 34.9499C64.0461 34.5954 64.3312 34.0957 64.4329 33.5399L64.8872 31.7399L61.6786 30.8299L61.2243 32.6299C61.0496 33.1663 61.0597 33.7506 61.2527 34.2799Z" fill="#303030"/>
                <path d="M54.6839 40.4401L54.2012 40.0501L57.0407 36.1001L62.3222 40.3301L59.5774 44.1601L59.0946 43.7701L61.4136 40.5401L59.5206 39.0301L57.4477 41.9201L56.9745 41.5401L59.0946 38.6501L57.1354 37.0801L54.6839 40.4401Z" fill="#303030"/>
                <path d="M52.4691 48.4099L51.1156 48.4899V48.0099L52.4691 47.9999L51.7403 46.8099L52.1094 46.5599L52.8288 47.7599L53.4156 46.4199L53.8226 46.6499L53.179 47.9099L54.5325 47.8299V48.3199H53.16L53.8889 49.5099L53.5197 49.7599L52.8004 48.5599L52.1757 49.8599L51.7782 49.6199L52.4691 48.4099Z" fill="#303030"/>
                <path d="M40.1646 47.6099L41.3099 48.2799C41.5019 47.8902 41.7699 47.5479 42.0961 47.2756C42.4224 47.0033 42.7996 46.8071 43.2029 46.6999C43.5791 46.576 43.9747 46.5318 44.3671 46.5699C44.7075 46.5975 45.0346 46.7219 45.3136 46.9299C45.5658 47.1308 45.7513 47.4108 45.8436 47.7299C45.9577 48.1247 45.9376 48.5491 45.7868 48.9299C45.5493 49.4473 45.2291 49.9175 44.8403 50.3199C45.1524 50.4971 45.4418 50.7155 45.7016 50.9699C45.8801 51.1648 46.013 51.4011 46.0897 51.6599C46.1382 51.8617 46.1412 52.0726 46.0985 52.2759C46.0557 52.4791 45.9684 52.6688 45.8436 52.8299C45.5909 53.2146 45.2139 53.4884 44.7835 53.5999C44.4056 53.7522 43.9878 53.7522 43.6099 53.5999C43.4418 53.5235 43.2928 53.407 43.1746 53.2595C43.0563 53.1121 42.972 52.9376 42.9284 52.7499C42.8292 52.4198 42.8529 52.0622 42.9947 51.7499C43.2119 51.2953 43.4963 50.8801 43.837 50.5199L41.556 49.1799C41.4689 49.6508 41.4498 50.1329 41.4992 50.6099H40.9218C40.8829 50.0225 40.9471 49.4326 41.1111 48.8699L39.9185 48.1699L40.1646 47.6099ZM41.8115 48.6099L44.3198 50.0799C44.6485 49.7483 44.9206 49.3592 45.1243 48.9299C45.2283 48.64 45.2283 48.3199 45.1243 48.0299C45.0814 47.8567 44.9983 47.6974 44.8827 47.5665C44.767 47.4356 44.6224 47.3371 44.4617 47.2799C44.0688 47.1397 43.6431 47.1397 43.2502 47.2799C42.9291 47.3694 42.6305 47.5322 42.3754 47.7568C42.1203 47.9814 41.9149 48.2624 41.7737 48.5799L41.8115 48.6099ZM45.3704 52.6099C45.4322 52.4994 45.471 52.3762 45.484 52.2486C45.4971 52.1209 45.4842 51.9918 45.4461 51.8699C45.3881 51.6724 45.2839 51.4936 45.1432 51.3499C44.9023 51.1352 44.6387 50.9506 44.3576 50.7999C44.0706 51.0997 43.8195 51.4356 43.6099 51.7999C43.4955 52.0271 43.4683 52.2921 43.5342 52.5399C43.5642 52.6543 43.6168 52.7607 43.6886 52.8521C43.7604 52.9434 43.8497 53.0177 43.9506 53.0699C44.1916 53.1659 44.4574 53.1659 44.6984 53.0699C44.9557 52.9974 45.1804 52.8309 45.3325 52.5999L45.3704 52.6099Z" fill="#303030"/>
                <path d="M28.6267 55.3201L28.7592 48.3201H29.4312L29.3271 53.9201L32.0152 49.2601H32.3465L34.8642 54.0001L34.9588 48.4301H35.6308L35.5078 55.4301H34.9304L32.1477 50.2001L29.2041 55.3301L28.6267 55.3201Z" fill="#303030"/>
                <path d="M25.3329 48.0001C25.7657 48.4359 26.0754 48.9902 26.2275 49.6012C26.3796 50.2121 26.3681 50.8557 26.1942 51.4601C26.0387 52.079 25.728 52.6421 25.295 53.0901C24.8742 53.5271 24.3465 53.8318 23.7712 53.9701C23.1642 54.1148 22.5323 54.0941 21.9349 53.9101C21.3396 53.7565 20.7919 53.443 20.3448 53.0001C19.9184 52.5698 19.6137 52.0228 19.4646 51.4201C19.319 50.7971 19.3297 50.1447 19.4957 49.5274C19.6617 48.9101 19.9772 48.3492 20.4111 47.9001C20.8244 47.4642 21.3408 47.1534 21.9065 47.0001C22.5104 46.8558 23.1391 46.8765 23.7333 47.0601C24.3348 47.2212 24.8861 47.5452 25.3329 48.0001ZM22.1053 47.6501C21.6423 47.764 21.2191 48.0135 20.8843 48.3701C20.5357 48.737 20.2872 49.1965 20.165 49.7001C20.033 50.2006 20.033 50.7296 20.165 51.2301C20.2766 51.717 20.5161 52.1607 20.8559 52.5101C21.2123 52.8783 21.6523 53.1435 22.1337 53.2801C22.615 53.4096 23.1194 53.4096 23.6008 53.2801C24.0641 53.1597 24.4888 52.9112 24.8312 52.5601C25.178 52.1917 25.4262 51.7328 25.5506 51.2301C25.6829 50.7263 25.6829 50.1939 25.5506 49.6901C25.4294 49.205 25.1876 48.7631 24.8502 48.4101C24.4919 48.0414 24.0479 47.7792 23.5629 47.6501C23.086 47.5108 22.5822 47.5108 22.1053 47.6501Z" fill="#303030"/>
                <path d="M14.9403 43L15.1958 45.75C15.3582 45.8233 15.5162 45.9068 15.6691 46L17.2119 46.94L18.253 45L18.8683 45.37L15.5555 51.4L13.3975 50.09C12.7596 49.7515 12.2564 49.1844 11.9777 48.49C11.8748 48.1772 11.8401 47.8439 11.8762 47.5149C11.9122 47.1859 12.0181 46.8698 12.186 46.59C12.406 46.1518 12.7547 45.8008 13.1798 45.59C13.6115 45.4011 14.0889 45.3626 14.5428 45.48L14.2683 42.54L14.9403 43ZM13.8613 46.16C13.639 46.219 13.4302 46.3247 13.2475 46.4708C13.0647 46.617 12.9118 46.8006 12.7978 47.0107C12.6838 47.2207 12.6111 47.4529 12.584 47.6934C12.557 47.9338 12.5761 48.1776 12.6403 48.41C12.8621 48.9276 13.2467 49.3481 13.7288 49.6L15.2526 50.53L16.909 47.53L15.3851 46.6C14.9471 46.2533 14.4079 46.0799 13.8613 46.11V46.16Z" fill="#303030"/>
                <path d="M9.33699 38.3101L9.76291 37.8601L13.0283 41.4101L8.29583 46.2901L5.14398 42.8501L5.57937 42.4001L8.25797 45.3101L9.87649 43.5801L7.52917 41.0001L7.98349 40.5401L10.3781 43.1401L12.1386 41.3301L9.33699 38.3101Z" fill="#303030"/>
                <path d="M2.30355 34.38L2.53071 33L2.97556 33.07L2.72001 34.49L3.97885 34L4.13029 34.44L2.85252 34.9L3.90313 35.84L3.60025 36.2L2.5875 35.2L2.35087 36.62L1.89655 36.53L2.16157 35.11L0.893257 35.59L0.751282 35.2L2.01959 34.73L0.968977 33.8L1.28132 33.44L2.30355 34.38Z" fill="#303030"/>
            </g>
            <defs>
                <clipPath id="clip0_53_6">
                    <rect width="65.2424" height="55.46" fill="white" transform="translate(0.411499)"/>
                </clipPath>
            </defs>
        </symbol>
    </defs>
</svg>